ply
format ascii 1.0
comment Created by Blender 2.80 (sub 75) - www.blender.org, source file: ''
element vertex 632
property float x
property float y
property float z
property float nx
property float ny
property float nz
element face 236
property list uchar uint vertex_indices
end_header
-0.072387 0.021413 0.007123 0.000007 -0.002882 -0.999996
-0.074931 -0.019197 0.007240 0.000007 -0.002882 -0.999996
-0.076332 0.001275 0.007181 0.000007 -0.002882 -0.999996
-0.074931 -0.019197 0.007240 0.000136 -0.002890 -0.999996
-0.072387 0.021413 0.007123 0.000136 -0.002890 -0.999996
-0.068278 -0.038610 0.007297 0.000136 -0.002890 -0.999996
-0.068278 -0.038610 0.007297 -0.000056 -0.002903 -0.999996
-0.072387 0.021413 0.007123 -0.000056 -0.002903 -0.999996
-0.063364 0.039843 0.007069 -0.000056 -0.002903 -0.999996
-0.068278 -0.038610 0.007297 -0.000039 -0.002904 -0.999996
-0.063364 0.039843 0.007069 -0.000039 -0.002904 -0.999996
-0.056829 -0.055639 0.007346 -0.000039 -0.002904 -0.999996
-0.056829 -0.055639 0.007346 0.000060 -0.002897 -0.999996
-0.063364 0.039843 0.007069 0.000060 -0.002897 -0.999996
-0.049879 0.055311 0.007025 0.000060 -0.002897 -0.999996
-0.056829 -0.055639 0.007346 -0.000001 -0.002893 -0.999996
-0.049879 0.055311 0.007025 -0.000001 -0.002893 -0.999996
-0.041361 -0.069124 0.007385 -0.000001 -0.002893 -0.999996
-0.041361 -0.069124 0.007385 -0.000049 -0.002896 -0.999996
-0.049879 0.055311 0.007025 -0.000049 -0.002896 -0.999996
-0.032850 0.066761 0.006991 -0.000049 -0.002896 -0.999996
-0.041361 -0.069124 0.007385 -0.000009 -0.002899 -0.999996
-0.032850 0.066761 0.006991 -0.000009 -0.002899 -0.999996
-0.022931 -0.078147 0.007411 -0.000009 -0.002899 -0.999996
-0.022931 -0.078147 0.007411 0.000014 -0.002897 -0.999996
-0.032850 0.066761 0.006991 0.000014 -0.002897 -0.999996
-0.013437 0.073413 0.006972 0.000014 -0.002897 -0.999996
-0.022931 -0.078147 0.007411 0.000028 -0.002898 -0.999996
-0.013437 0.073413 0.006972 0.000028 -0.002898 -0.999996
-0.002793 -0.082092 0.007423 0.000028 -0.002898 -0.999996
-0.002793 -0.082092 0.007423 0.000003 -0.002900 -0.999996
-0.013437 0.073413 0.006972 0.000003 -0.002900 -0.999996
0.007035 0.074814 0.006968 0.000003 -0.002900 -0.999996
0.017680 -0.080690 0.007419 0.000003 -0.002900 -0.999996
0.017680 -0.080690 0.007419 0.000028 -0.002898 -0.999996
0.007035 0.074814 0.006968 0.000028 -0.002898 -0.999996
0.027173 0.070869 0.006980 0.000028 -0.002898 -0.999996
0.017680 -0.080690 0.007419 -0.000039 -0.002894 -0.999996
0.027173 0.070869 0.006980 -0.000039 -0.002894 -0.999996
0.037092 -0.074038 0.007399 -0.000039 -0.002894 -0.999996
0.037092 -0.074038 0.007399 -0.000005 -0.002892 -0.999996
0.027173 0.070869 0.006980 -0.000005 -0.002892 -0.999996
0.045604 0.061847 0.007006 -0.000005 -0.002892 -0.999996
0.037092 -0.074038 0.007399 0.000007 -0.002893 -0.999996
0.045604 0.061847 0.007006 0.000007 -0.002893 -0.999996
0.054121 -0.062588 0.007366 0.000007 -0.002893 -0.999996
0.054121 -0.062588 0.007366 -0.000001 -0.002893 -0.999996
0.045604 0.061847 0.007006 -0.000001 -0.002893 -0.999996
0.061071 0.048361 0.007045 -0.000001 -0.002893 -0.999996
0.054121 -0.062588 0.007366 -0.000020 -0.002892 -0.999996
0.061071 0.048361 0.007045 -0.000020 -0.002892 -0.999996
0.067607 -0.047121 0.007321 -0.000020 -0.002892 -0.999996
0.067607 -0.047121 0.007321 -0.000022 -0.002892 -0.999996
0.061071 0.048361 0.007045 -0.000022 -0.002892 -0.999996
0.072521 0.031332 0.007094 -0.000022 -0.002892 -0.999996
0.067607 -0.047121 0.007321 0.000042 -0.002896 -0.999996
0.072521 0.031332 0.007094 0.000042 -0.002896 -0.999996
0.076629 -0.028691 0.007268 0.000042 -0.002896 -0.999996
0.076629 -0.028691 0.007268 -0.000051 -0.002902 -0.999996
0.072521 0.031332 0.007094 -0.000051 -0.002902 -0.999996
0.079173 0.011920 0.007150 -0.000051 -0.002902 -0.999996
0.076629 -0.028691 0.007268 0.000191 -0.002918 -0.999996
0.079173 0.011920 0.007150 0.000191 -0.002918 -0.999996
0.080575 -0.008553 0.007210 0.000191 -0.002918 -0.999996
0.067607 -0.047121 0.007321 -0.753727 0.657185 -0.001904
0.054121 -0.062859 -0.086161 -0.753727 0.657185 -0.001904
0.054121 -0.062588 0.007366 -0.753727 0.657185 -0.001904
0.067607 -0.047392 -0.086206 -0.753727 0.657185 -0.001904
0.037092 -0.074038 0.007399 -0.557981 0.829850 -0.002405
0.054121 -0.062859 -0.086161 -0.557981 0.829850 -0.002405
0.037092 -0.074309 -0.086128 -0.557981 0.829850 -0.002405
0.054121 -0.062588 0.007366 -0.557981 0.829850 -0.002405
0.017680 -0.080690 0.007419 -0.324171 0.945995 -0.002741
0.037092 -0.074309 -0.086128 -0.324171 0.945995 -0.002741
0.017680 -0.080961 -0.086109 -0.324171 0.945995 -0.002741
0.037092 -0.074309 -0.086128 -0.324171 0.945994 -0.002741
0.017680 -0.080690 0.007419 -0.324171 0.945994 -0.002741
0.037092 -0.074038 0.007399 -0.324171 0.945994 -0.002741
-0.002793 -0.082092 0.007423 -0.068321 0.997659 -0.002891
0.017680 -0.080961 -0.086109 -0.068321 0.997659 -0.002891
-0.002793 -0.082363 -0.086104 -0.068321 0.997659 -0.002891
0.017680 -0.080690 0.007419 -0.068321 0.997659 -0.002891
-0.022931 -0.078147 0.007411 0.192245 0.981343 -0.002843
-0.002793 -0.082363 -0.086104 0.192245 0.981343 -0.002843
-0.022931 -0.078418 -0.086116 0.192245 0.981343 -0.002843
-0.002793 -0.082092 0.007423 0.192245 0.981343 -0.002843
-0.041361 -0.069124 0.007385 0.439714 0.898134 -0.002602
-0.022931 -0.078418 -0.086116 0.439714 0.898134 -0.002602
-0.041361 -0.069395 -0.086142 0.439714 0.898134 -0.002602
-0.022931 -0.078147 0.007411 0.439714 0.898134 -0.002602
-0.056829 -0.055639 0.007346 0.657139 0.753766 -0.002184
-0.041361 -0.069395 -0.086142 0.657139 0.753766 -0.002184
-0.056829 -0.055910 -0.086181 0.657139 0.753766 -0.002184
-0.041361 -0.069124 0.007385 0.657139 0.753766 -0.002184
-0.068278 -0.038881 -0.086230 0.829878 0.557942 -0.001617
-0.056829 -0.055639 0.007346 0.829878 0.557942 -0.001617
-0.056829 -0.055910 -0.086181 0.829878 0.557942 -0.001617
-0.068278 -0.038610 0.007297 0.829878 0.557942 -0.001617
-0.074931 -0.019468 -0.086287 0.945990 0.324196 -0.000939
-0.068278 -0.038610 0.007297 0.945990 0.324196 -0.000939
-0.068278 -0.038881 -0.086230 0.945990 0.324196 -0.000939
-0.068278 -0.038610 0.007297 0.945990 0.324196 -0.000939
-0.074931 -0.019468 -0.086287 0.945990 0.324196 -0.000939
-0.074931 -0.019197 0.007240 0.945990 0.324196 -0.000939
-0.076332 0.001004 -0.086346 0.997667 0.068275 -0.000198
-0.074931 -0.019197 0.007240 0.997667 0.068275 -0.000198
-0.074931 -0.019468 -0.086287 0.997667 0.068275 -0.000198
-0.074931 -0.019197 0.007240 0.997667 0.068275 -0.000198
-0.076332 0.001004 -0.086346 0.997667 0.068275 -0.000198
-0.076332 0.001275 0.007181 0.997667 0.068275 -0.000198
-0.072387 0.021142 -0.086404 0.981347 -0.192243 0.000557
-0.076332 0.001275 0.007181 0.981347 -0.192243 0.000557
-0.076332 0.001004 -0.086346 0.981347 -0.192243 0.000557
-0.072387 0.021413 0.007123 0.981347 -0.192243 0.000557
-0.063364 0.039572 -0.086458 0.898139 -0.439709 0.001274
-0.072387 0.021413 0.007123 0.898139 -0.439709 0.001274
-0.072387 0.021142 -0.086404 0.898139 -0.439709 0.001274
-0.063364 0.039843 0.007069 0.898139 -0.439709 0.001274
-0.049879 0.055040 -0.086503 0.753772 -0.657133 0.001904
-0.063364 0.039843 0.007069 0.753772 -0.657133 0.001904
-0.063364 0.039572 -0.086458 0.753772 -0.657133 0.001904
-0.049879 0.055311 0.007025 0.753772 -0.657133 0.001904
-0.032850 0.066761 0.006991 0.557981 -0.829850 0.002405
-0.049879 0.055040 -0.086503 0.557981 -0.829850 0.002405
-0.032850 0.066490 -0.086536 0.557981 -0.829850 0.002405
-0.049879 0.055311 0.007025 0.557981 -0.829850 0.002405
-0.013437 0.073413 0.006972 0.324156 -0.946000 0.002741
-0.032850 0.066490 -0.086536 0.324156 -0.946000 0.002741
-0.013437 0.073142 -0.086555 0.324156 -0.946000 0.002741
-0.032850 0.066761 0.006991 0.324156 -0.946000 0.002741
0.007035 0.074814 0.006968 0.068276 -0.997662 0.002891
-0.013437 0.073142 -0.086555 0.068276 -0.997662 0.002891
0.007035 0.074543 -0.086559 0.068276 -0.997662 0.002891
-0.013437 0.073142 -0.086555 0.068275 -0.997662 0.002891
0.007035 0.074814 0.006968 0.068275 -0.997662 0.002891
-0.013437 0.073413 0.006972 0.068275 -0.997662 0.002891
0.027173 0.070869 0.006980 -0.192245 -0.981343 0.002843
0.007035 0.074543 -0.086559 -0.192245 -0.981343 0.002843
0.027173 0.070598 -0.086548 -0.192245 -0.981343 0.002843
0.007035 0.074814 0.006968 -0.192245 -0.981343 0.002843
0.045604 0.061847 0.007006 -0.439695 -0.898143 0.002612
0.027173 0.070598 -0.086548 -0.439695 -0.898143 0.002612
0.045604 0.061575 -0.086522 -0.439695 -0.898143 0.002612
0.027173 0.070598 -0.086548 -0.439655 -0.898163 0.002602
0.045604 0.061847 0.007006 -0.439655 -0.898163 0.002602
0.027173 0.070869 0.006980 -0.439655 -0.898163 0.002602
0.061071 0.048361 0.007045 -0.657163 -0.753745 0.002184
0.045604 0.061575 -0.086522 -0.657163 -0.753745 0.002184
0.061071 0.048090 -0.086483 -0.657163 -0.753745 0.002184
0.045604 0.061575 -0.086522 -0.657191 -0.753721 0.002192
0.061071 0.048361 0.007045 -0.657191 -0.753721 0.002192
0.045604 0.061847 0.007006 -0.657191 -0.753721 0.002192
0.061071 0.048361 0.007045 -0.829856 -0.557976 0.001617
0.072521 0.031061 -0.086433 -0.829856 -0.557976 0.001617
0.072521 0.031332 0.007094 -0.829856 -0.557976 0.001617
0.061071 0.048090 -0.086483 -0.829856 -0.557976 0.001617
0.072521 0.031332 0.007094 -0.945999 -0.324167 0.000939
0.079173 0.011649 -0.086377 -0.945999 -0.324167 0.000939
0.079173 0.011920 0.007150 -0.945999 -0.324167 0.000939
0.072521 0.031061 -0.086433 -0.945999 -0.324167 0.000939
0.079173 0.011920 0.007150 -0.997663 -0.068320 0.000198
0.080575 -0.008824 -0.086318 -0.997663 -0.068320 0.000198
0.080575 -0.008553 0.007210 -0.997663 -0.068320 0.000198
0.079173 0.011649 -0.086377 -0.997663 -0.068320 0.000198
0.080575 -0.008553 0.007210 -0.981338 0.192290 -0.000557
0.076629 -0.028962 -0.086259 -0.981338 0.192290 -0.000557
0.076629 -0.028691 0.007268 -0.981338 0.192290 -0.000557
0.080575 -0.008824 -0.086318 -0.981338 0.192290 -0.000557
0.076629 -0.028691 0.007268 -0.898159 0.439670 -0.001274
0.067607 -0.047392 -0.086206 -0.898159 0.439670 -0.001274
0.067607 -0.047121 0.007321 -0.898159 0.439670 -0.001274
0.076629 -0.028962 -0.086259 -0.898159 0.439670 -0.001274
0.080575 -0.008553 0.007210 -0.000191 0.002918 0.999996
0.079173 0.011920 0.007150 -0.000191 0.002918 0.999996
0.076629 -0.028691 0.007268 -0.000191 0.002918 0.999996
0.079173 0.011920 0.007150 0.000051 0.002902 0.999996
0.072521 0.031332 0.007094 0.000051 0.002902 0.999996
0.076629 -0.028691 0.007268 0.000051 0.002902 0.999996
0.076629 -0.028691 0.007268 -0.000042 0.002896 0.999996
0.072521 0.031332 0.007094 -0.000042 0.002896 0.999996
0.067607 -0.047121 0.007321 -0.000042 0.002896 0.999996
0.072521 0.031332 0.007094 0.000022 0.002892 0.999996
0.061071 0.048361 0.007045 0.000022 0.002892 0.999996
0.067607 -0.047121 0.007321 0.000022 0.002892 0.999996
0.067607 -0.047121 0.007321 0.000020 0.002892 0.999996
0.061071 0.048361 0.007045 0.000020 0.002892 0.999996
0.054121 -0.062588 0.007366 0.000020 0.002892 0.999996
0.061071 0.048361 0.007045 0.000001 0.002893 0.999996
0.045604 0.061847 0.007006 0.000001 0.002893 0.999996
0.054121 -0.062588 0.007366 0.000001 0.002893 0.999996
0.054121 -0.062588 0.007366 -0.000007 0.002893 0.999996
0.045604 0.061847 0.007006 -0.000007 0.002893 0.999996
0.037092 -0.074038 0.007399 -0.000007 0.002893 0.999996
0.045604 0.061847 0.007006 0.000005 0.002892 0.999996
0.027173 0.070869 0.006980 0.000005 0.002892 0.999996
0.037092 -0.074038 0.007399 0.000005 0.002892 0.999996
0.037092 -0.074038 0.007399 0.000039 0.002894 0.999996
0.027173 0.070869 0.006980 0.000039 0.002894 0.999996
0.017680 -0.080690 0.007419 0.000039 0.002894 0.999996
0.027173 0.070869 0.006980 -0.000028 0.002898 0.999996
0.007035 0.074814 0.006968 -0.000028 0.002898 0.999996
0.017680 -0.080690 0.007419 -0.000028 0.002898 0.999996
0.017680 -0.080690 0.007419 -0.000003 0.002900 0.999996
0.007035 0.074814 0.006968 -0.000003 0.002900 0.999996
-0.002793 -0.082092 0.007423 -0.000003 0.002900 0.999996
-0.013437 0.073413 0.006972 -0.000003 0.002900 0.999996
-0.002793 -0.082092 0.007423 -0.000028 0.002898 0.999996
-0.013437 0.073413 0.006972 -0.000028 0.002898 0.999996
-0.022931 -0.078147 0.007411 -0.000028 0.002898 0.999996
-0.013437 0.073413 0.006972 -0.000014 0.002897 0.999996
-0.032850 0.066761 0.006991 -0.000014 0.002897 0.999996
-0.022931 -0.078147 0.007411 -0.000014 0.002897 0.999996
-0.022931 -0.078147 0.007411 0.000009 0.002899 0.999996
-0.032850 0.066761 0.006991 0.000009 0.002899 0.999996
-0.041361 -0.069124 0.007385 0.000009 0.002899 0.999996
-0.032850 0.066761 0.006991 0.000049 0.002896 0.999996
-0.049879 0.055311 0.007025 0.000049 0.002896 0.999996
-0.041361 -0.069124 0.007385 0.000049 0.002896 0.999996
-0.041361 -0.069124 0.007385 0.000001 0.002893 0.999996
-0.049879 0.055311 0.007025 0.000001 0.002893 0.999996
-0.056829 -0.055639 0.007346 0.000001 0.002893 0.999996
-0.049879 0.055311 0.007025 -0.000060 0.002897 0.999996
-0.063364 0.039843 0.007069 -0.000060 0.002897 0.999996
-0.056829 -0.055639 0.007346 -0.000060 0.002897 0.999996
-0.056829 -0.055639 0.007346 0.000039 0.002904 0.999996
-0.063364 0.039843 0.007069 0.000039 0.002904 0.999996
-0.068278 -0.038610 0.007297 0.000039 0.002904 0.999996
-0.063364 0.039843 0.007069 0.000056 0.002903 0.999996
-0.072387 0.021413 0.007123 0.000056 0.002903 0.999996
-0.068278 -0.038610 0.007297 0.000056 0.002903 0.999996
-0.068278 -0.038610 0.007297 -0.000136 0.002890 0.999996
-0.072387 0.021413 0.007123 -0.000136 0.002890 0.999996
-0.074931 -0.019197 0.007240 -0.000136 0.002890 0.999996
-0.076332 0.001275 0.007181 -0.000007 0.002882 0.999996
-0.074931 -0.019197 0.007240 -0.000007 0.002882 0.999996
-0.072387 0.021413 0.007123 -0.000007 0.002882 0.999996
0.067607 -0.047392 -0.086206 0.753727 -0.657185 0.001904
0.067607 -0.047121 0.007321 0.753727 -0.657185 0.001904
0.054121 -0.062859 -0.086161 0.753727 -0.657185 0.001904
0.054121 -0.062588 0.007366 0.753727 -0.657185 0.001904
0.054121 -0.062588 0.007366 0.557981 -0.829850 0.002405
0.037092 -0.074038 0.007399 0.557981 -0.829850 0.002405
0.054121 -0.062859 -0.086161 0.557981 -0.829850 0.002405
0.037092 -0.074309 -0.086128 0.557981 -0.829850 0.002405
0.037092 -0.074038 0.007399 0.324171 -0.945994 0.002741
0.017680 -0.080690 0.007419 0.324171 -0.945994 0.002741
0.037092 -0.074309 -0.086128 0.324171 -0.945994 0.002741
0.017680 -0.080961 -0.086109 0.324171 -0.945995 0.002741
0.037092 -0.074309 -0.086128 0.324171 -0.945995 0.002741
0.017680 -0.080690 0.007419 0.324171 -0.945995 0.002741
0.017680 -0.080690 0.007419 0.068321 -0.997659 0.002891
-0.002793 -0.082092 0.007423 0.068321 -0.997659 0.002891
0.017680 -0.080961 -0.086109 0.068321 -0.997659 0.002891
-0.002793 -0.082363 -0.086104 0.068321 -0.997659 0.002891
-0.002793 -0.082092 0.007423 -0.192245 -0.981343 0.002843
-0.022931 -0.078147 0.007411 -0.192245 -0.981343 0.002843
-0.002793 -0.082363 -0.086104 -0.192245 -0.981343 0.002843
-0.022931 -0.078418 -0.086116 -0.192245 -0.981343 0.002843
-0.022931 -0.078147 0.007411 -0.439714 -0.898134 0.002602
-0.041361 -0.069124 0.007385 -0.439714 -0.898134 0.002602
-0.022931 -0.078418 -0.086116 -0.439714 -0.898134 0.002602
-0.041361 -0.069395 -0.086142 -0.439714 -0.898134 0.002602
-0.041361 -0.069124 0.007385 -0.657139 -0.753766 0.002184
-0.056829 -0.055639 0.007346 -0.657139 -0.753766 0.002184
-0.041361 -0.069395 -0.086142 -0.657139 -0.753766 0.002184
-0.056829 -0.055910 -0.086181 -0.657139 -0.753766 0.002184
-0.068278 -0.038610 0.007297 -0.829878 -0.557942 0.001617
-0.068278 -0.038881 -0.086230 -0.829878 -0.557942 0.001617
-0.056829 -0.055639 0.007346 -0.829878 -0.557942 0.001617
-0.056829 -0.055910 -0.086181 -0.829878 -0.557942 0.001617
-0.074931 -0.019197 0.007240 -0.945990 -0.324196 0.000939
-0.074931 -0.019468 -0.086287 -0.945990 -0.324196 0.000939
-0.068278 -0.038610 0.007297 -0.945990 -0.324196 0.000939
-0.068278 -0.038881 -0.086230 -0.945990 -0.324196 0.000939
-0.068278 -0.038610 0.007297 -0.945990 -0.324196 0.000939
-0.074931 -0.019468 -0.086287 -0.945990 -0.324196 0.000939
-0.076332 0.001275 0.007181 -0.997667 -0.068275 0.000198
-0.076332 0.001004 -0.086346 -0.997667 -0.068275 0.000198
-0.074931 -0.019197 0.007240 -0.997667 -0.068275 0.000198
-0.074931 -0.019468 -0.086287 -0.997667 -0.068275 0.000198
-0.074931 -0.019197 0.007240 -0.997667 -0.068275 0.000198
-0.076332 0.001004 -0.086346 -0.997667 -0.068275 0.000198
-0.072387 0.021413 0.007123 -0.981347 0.192243 -0.000557
-0.072387 0.021142 -0.086404 -0.981347 0.192243 -0.000557
-0.076332 0.001275 0.007181 -0.981347 0.192243 -0.000557
-0.076332 0.001004 -0.086346 -0.981347 0.192243 -0.000557
-0.063364 0.039843 0.007069 -0.898139 0.439709 -0.001274
-0.063364 0.039572 -0.086458 -0.898139 0.439709 -0.001274
-0.072387 0.021413 0.007123 -0.898139 0.439709 -0.001274
-0.072387 0.021142 -0.086404 -0.898139 0.439709 -0.001274
-0.049879 0.055311 0.007025 -0.753772 0.657133 -0.001904
-0.049879 0.055040 -0.086503 -0.753772 0.657133 -0.001904
-0.063364 0.039843 0.007069 -0.753772 0.657133 -0.001904
-0.063364 0.039572 -0.086458 -0.753772 0.657133 -0.001904
-0.049879 0.055311 0.007025 -0.557981 0.829850 -0.002405
-0.032850 0.066761 0.006991 -0.557981 0.829850 -0.002405
-0.049879 0.055040 -0.086503 -0.557981 0.829850 -0.002405
-0.032850 0.066490 -0.086536 -0.557981 0.829850 -0.002405
-0.032850 0.066761 0.006991 -0.324156 0.946000 -0.002741
-0.013437 0.073413 0.006972 -0.324156 0.946000 -0.002741
-0.032850 0.066490 -0.086536 -0.324156 0.946000 -0.002741
-0.013437 0.073142 -0.086555 -0.324156 0.946000 -0.002741
-0.013437 0.073413 0.006972 -0.068275 0.997662 -0.002891
0.007035 0.074814 0.006968 -0.068275 0.997662 -0.002891
-0.013437 0.073142 -0.086555 -0.068275 0.997662 -0.002891
0.007035 0.074543 -0.086559 -0.068276 0.997662 -0.002891
-0.013437 0.073142 -0.086555 -0.068276 0.997662 -0.002891
0.007035 0.074814 0.006968 -0.068276 0.997662 -0.002891
0.007035 0.074814 0.006968 0.192245 0.981343 -0.002843
0.027173 0.070869 0.006980 0.192245 0.981343 -0.002843
0.007035 0.074543 -0.086559 0.192245 0.981343 -0.002843
0.027173 0.070598 -0.086548 0.192245 0.981343 -0.002843
0.027173 0.070869 0.006980 0.439655 0.898163 -0.002602
0.045604 0.061847 0.007006 0.439655 0.898163 -0.002602
0.027173 0.070598 -0.086548 0.439655 0.898163 -0.002602
0.045604 0.061575 -0.086522 0.439695 0.898143 -0.002612
0.027173 0.070598 -0.086548 0.439695 0.898143 -0.002612
0.045604 0.061847 0.007006 0.439695 0.898143 -0.002612
0.045604 0.061847 0.007006 0.657191 0.753721 -0.002192
0.061071 0.048361 0.007045 0.657191 0.753721 -0.002192
0.045604 0.061575 -0.086522 0.657191 0.753721 -0.002192
0.061071 0.048090 -0.086483 0.657163 0.753745 -0.002184
0.045604 0.061575 -0.086522 0.657163 0.753745 -0.002184
0.061071 0.048361 0.007045 0.657163 0.753745 -0.002184
0.061071 0.048090 -0.086483 0.829856 0.557976 -0.001617
0.061071 0.048361 0.007045 0.829856 0.557976 -0.001617
0.072521 0.031061 -0.086433 0.829856 0.557976 -0.001617
0.072521 0.031332 0.007094 0.829856 0.557976 -0.001617
0.072521 0.031061 -0.086433 0.945999 0.324167 -0.000939
0.072521 0.031332 0.007094 0.945999 0.324167 -0.000939
0.079173 0.011649 -0.086377 0.945999 0.324167 -0.000939
0.079173 0.011920 0.007150 0.945999 0.324167 -0.000939
0.079173 0.011649 -0.086377 0.997663 0.068320 -0.000198
0.079173 0.011920 0.007150 0.997663 0.068320 -0.000198
0.080575 -0.008824 -0.086318 0.997663 0.068320 -0.000198
0.080575 -0.008553 0.007210 0.997663 0.068320 -0.000198
0.080575 -0.008824 -0.086318 0.981338 -0.192290 0.000557
0.080575 -0.008553 0.007210 0.981338 -0.192290 0.000557
0.076629 -0.028962 -0.086259 0.981338 -0.192290 0.000557
0.076629 -0.028691 0.007268 0.981338 -0.192290 0.000557
0.076629 -0.028962 -0.086259 0.898159 -0.439670 0.001274
0.076629 -0.028691 0.007268 0.898159 -0.439670 0.001274
0.067607 -0.047392 -0.086206 0.898159 -0.439670 0.001274
0.067607 -0.047121 0.007321 0.898159 -0.439670 0.001274
-0.081767 0.091190 -0.086607 0.000055 -0.002891 -0.999996
-0.072387 0.021142 -0.086404 0.000055 -0.002891 -0.999996
-0.076332 0.001004 -0.086346 0.000055 -0.002891 -0.999996
-0.072387 0.021142 -0.086404 -0.000016 -0.002900 -0.999996
-0.081767 0.091190 -0.086607 -0.000016 -0.002900 -0.999996
-0.054295 0.109661 -0.086661 -0.000016 -0.002900 -0.999996
-0.072387 0.021142 -0.086404 -0.000094 -0.002884 -0.999996
-0.054295 0.109661 -0.086661 -0.000094 -0.002884 -0.999996
-0.063364 0.039572 -0.086458 -0.000094 -0.002884 -0.999996
-0.063364 0.039572 -0.086458 -0.000018 -0.002894 -0.999996
-0.054295 0.109661 -0.086661 -0.000018 -0.002894 -0.999996
-0.049879 0.055040 -0.086503 -0.000018 -0.002894 -0.999996
-0.049879 0.055040 -0.086503 0.000001 -0.002892 -0.999996
-0.054295 0.109661 -0.086661 0.000001 -0.002892 -0.999996
-0.022979 0.120393 -0.086692 0.000001 -0.002892 -0.999996
-0.049879 0.055040 -0.086503 0.000009 -0.002896 -0.999996
-0.022979 0.120393 -0.086692 0.000009 -0.002896 -0.999996
-0.032850 0.066490 -0.086536 0.000009 -0.002896 -0.999996
-0.032850 0.066490 -0.086536 0.000013 -0.002897 -0.999996
-0.022979 0.120393 -0.086692 0.000013 -0.002897 -0.999996
-0.013437 0.073142 -0.086555 0.000013 -0.002897 -0.999996
-0.013437 0.073142 -0.086555 -0.000013 -0.002902 -0.999996
-0.022979 0.120393 -0.086692 -0.000013 -0.002902 -0.999996
0.010049 0.122654 -0.086699 -0.000013 -0.002902 -0.999996
-0.013437 0.073142 -0.086555 0.000004 -0.002910 -0.999996
0.010049 0.122654 -0.086699 0.000004 -0.002910 -0.999996
0.007035 0.074543 -0.086559 0.000004 -0.002910 -0.999996
0.007035 0.074543 -0.086559 -0.000024 -0.002908 -0.999996
0.010049 0.122654 -0.086699 -0.000024 -0.002908 -0.999996
0.027173 0.070598 -0.086548 -0.000024 -0.002908 -0.999996
0.027173 0.070598 -0.086548 0.000018 -0.002895 -0.999996
0.010049 0.122654 -0.086699 0.000018 -0.002895 -0.999996
0.042536 0.116289 -0.086680 0.000018 -0.002895 -0.999996
0.027173 0.070598 -0.086548 -0.000003 -0.002888 -0.999996
0.042536 0.116289 -0.086680 -0.000003 -0.002888 -0.999996
0.045604 0.061575 -0.086522 -0.000003 -0.002888 -0.999996
0.045604 0.061575 -0.086522 -0.000001 -0.002888 -0.999996
0.042536 0.116289 -0.086680 -0.000001 -0.002888 -0.999996
0.072269 0.101734 -0.086638 -0.000001 -0.002888 -0.999996
0.045604 0.061575 -0.086522 0.000002 -0.002890 -0.999996
0.072269 0.101734 -0.086638 0.000002 -0.002890 -0.999996
0.061071 0.048090 -0.086483 0.000002 -0.002890 -0.999996
0.061071 0.048090 -0.086483 0.000053 -0.002901 -0.999996
0.072269 0.101734 -0.086638 0.000053 -0.002901 -0.999996
0.072521 0.031061 -0.086433 0.000053 -0.002901 -0.999996
0.072521 0.031061 -0.086433 -0.000004 -0.002901 -0.999996
0.072269 0.101734 -0.086638 -0.000004 -0.002901 -0.999996
0.097221 0.079979 -0.086575 -0.000004 -0.002901 -0.999996
0.072521 0.031061 -0.086433 -0.000021 -0.002892 -0.999996
0.097221 0.079979 -0.086575 -0.000021 -0.002892 -0.999996
0.079173 0.011649 -0.086377 -0.000021 -0.002892 -0.999996
0.079173 0.011649 -0.086377 -0.000049 -0.002885 -0.999996
0.097221 0.079979 -0.086575 -0.000049 -0.002885 -0.999996
0.080575 -0.008824 -0.086318 -0.000049 -0.002885 -0.999996
0.080575 -0.008824 -0.086318 0.000045 -0.002902 -0.999996
0.097221 0.079979 -0.086575 0.000045 -0.002902 -0.999996
0.086010 -0.099009 -0.086056 0.000045 -0.002902 -0.999996
0.086010 -0.099009 -0.086056 -0.000032 -0.002898 -0.999996
0.097221 0.079979 -0.086575 -0.000032 -0.002898 -0.999996
0.107765 -0.074057 -0.086129 -0.000032 -0.002898 -0.999996
0.107765 -0.074057 -0.086129 0.000028 -0.002894 -0.999996
0.097221 0.079979 -0.086575 0.000028 -0.002894 -0.999996
0.115693 0.052507 -0.086495 0.000028 -0.002894 -0.999996
0.107765 -0.074057 -0.086129 -0.000002 -0.002892 -0.999996
0.115693 0.052507 -0.086495 -0.000002 -0.002892 -0.999996
0.122321 -0.044324 -0.086215 -0.000002 -0.002892 -0.999996
0.122321 -0.044324 -0.086215 -0.000064 -0.002896 -0.999996
0.115693 0.052507 -0.086495 -0.000064 -0.002896 -0.999996
0.126425 0.021190 -0.086405 -0.000064 -0.002896 -0.999996
0.122321 -0.044324 -0.086215 0.000050 -0.002903 -0.999996
0.126425 0.021190 -0.086405 0.000050 -0.002903 -0.999996
0.128685 -0.011837 -0.086309 0.000050 -0.002903 -0.999996
-0.118079 0.036505 -0.086449 0.000051 -0.002903 -0.999996
-0.122182 -0.029009 -0.086259 0.000051 -0.002903 -0.999996
-0.124443 0.004018 -0.086355 0.000051 -0.002903 -0.999996
-0.122182 -0.029009 -0.086259 0.000014 -0.002901 -0.999996
-0.118079 0.036505 -0.086449 0.000014 -0.002901 -0.999996
-0.111450 -0.060326 -0.086168 0.000014 -0.002901 -0.999996
-0.111450 -0.060326 -0.086168 0.000017 -0.002901 -0.999996
-0.118079 0.036505 -0.086449 0.000017 -0.002901 -0.999996
-0.103523 0.066238 -0.086535 0.000017 -0.002901 -0.999996
-0.111450 -0.060326 -0.086168 -0.000033 -0.002898 -0.999996
-0.103523 0.066238 -0.086535 -0.000033 -0.002898 -0.999996
-0.092979 -0.087798 -0.086089 -0.000033 -0.002898 -0.999996
-0.092979 -0.087798 -0.086089 0.000011 -0.002895 -0.999996
-0.103523 0.066238 -0.086535 0.000011 -0.002895 -0.999996
-0.081767 0.091190 -0.086607 0.000011 -0.002895 -0.999996
-0.092979 -0.087798 -0.086089 -0.000001 -0.002894 -0.999996
-0.081767 0.091190 -0.086607 -0.000001 -0.002894 -0.999996
-0.076332 0.001004 -0.086346 -0.000001 -0.002894 -0.999996
-0.092979 -0.087798 -0.086089 -0.000047 -0.002885 -0.999996
-0.076332 0.001004 -0.086346 -0.000047 -0.002885 -0.999996
-0.074931 -0.019468 -0.086287 -0.000047 -0.002885 -0.999996
-0.092979 -0.087798 -0.086089 -0.000001 -0.002897 -0.999996
-0.074931 -0.019468 -0.086287 -0.000001 -0.002897 -0.999996
-0.068026 -0.109553 -0.086026 -0.000001 -0.002897 -0.999996
-0.068026 -0.109553 -0.086026 0.000147 -0.002886 -0.999996
-0.074931 -0.019468 -0.086287 0.000147 -0.002886 -0.999996
-0.068278 -0.038881 -0.086230 0.000147 -0.002886 -0.999996
-0.068026 -0.109553 -0.086026 -0.000014 -0.002887 -0.999996
-0.068278 -0.038881 -0.086230 -0.000014 -0.002887 -0.999996
-0.056829 -0.055910 -0.086181 -0.000014 -0.002887 -0.999996
-0.068026 -0.109553 -0.086026 -0.000002 -0.002889 -0.999996
-0.056829 -0.055910 -0.086181 -0.000002 -0.002889 -0.999996
-0.038294 -0.124109 -0.085984 -0.000002 -0.002889 -0.999996
-0.038294 -0.124109 -0.085984 0.000004 -0.002888 -0.999996
-0.056829 -0.055910 -0.086181 0.000004 -0.002888 -0.999996
-0.041361 -0.069395 -0.086142 0.000004 -0.002888 -0.999996
-0.038294 -0.124109 -0.085984 -0.000003 -0.002888 -0.999996
-0.041361 -0.069395 -0.086142 -0.000003 -0.002888 -0.999996
-0.022931 -0.078418 -0.086116 -0.000003 -0.002888 -0.999996
-0.038294 -0.124109 -0.085984 0.000018 -0.002895 -0.999996
-0.022931 -0.078418 -0.086116 0.000018 -0.002895 -0.999996
-0.005806 -0.130473 -0.085965 0.000018 -0.002895 -0.999996
-0.005806 -0.130473 -0.085965 0.000030 -0.002891 -0.999996
-0.022931 -0.078418 -0.086116 0.000030 -0.002891 -0.999996
-0.002793 -0.082363 -0.086104 0.000030 -0.002891 -0.999996
-0.005806 -0.130473 -0.085965 -0.000014 -0.002888 -0.999996
-0.002793 -0.082363 -0.086104 -0.000014 -0.002888 -0.999996
0.027221 -0.128213 -0.085972 -0.000014 -0.002888 -0.999996
0.027221 -0.128213 -0.085972 -0.000045 -0.002908 -0.999996
-0.002793 -0.082363 -0.086104 -0.000045 -0.002908 -0.999996
0.017680 -0.080961 -0.086109 -0.000045 -0.002908 -0.999996
0.027221 -0.128213 -0.085972 0.000014 -0.002897 -0.999996
0.017680 -0.080961 -0.086109 0.000014 -0.002897 -0.999996
0.037092 -0.074309 -0.086128 0.000014 -0.002897 -0.999996
0.027221 -0.128213 -0.085972 0.000002 -0.002894 -0.999996
0.037092 -0.074309 -0.086128 0.000002 -0.002894 -0.999996
0.058538 -0.117481 -0.086003 0.000002 -0.002894 -0.999996
0.058538 -0.117481 -0.086003 0.000006 -0.002892 -0.999996
0.037092 -0.074309 -0.086128 0.000006 -0.002892 -0.999996
0.054121 -0.062859 -0.086161 0.000006 -0.002892 -0.999996
0.058538 -0.117481 -0.086003 -0.000018 -0.002894 -0.999996
0.054121 -0.062859 -0.086161 -0.000018 -0.002894 -0.999996
0.067607 -0.047392 -0.086206 -0.000018 -0.002894 -0.999996
0.058538 -0.117481 -0.086003 0.000020 -0.002899 -0.999996
0.067607 -0.047392 -0.086206 0.000020 -0.002899 -0.999996
0.086010 -0.099009 -0.086056 0.000020 -0.002899 -0.999996
0.086010 -0.099009 -0.086056 0.000036 -0.002893 -0.999996
0.067607 -0.047392 -0.086206 0.000036 -0.002893 -0.999996
0.076629 -0.028962 -0.086259 0.000036 -0.002893 -0.999996
0.086010 -0.099009 -0.086056 -0.000096 -0.002911 -0.999996
0.076629 -0.028962 -0.086259 -0.000096 -0.002911 -0.999996
0.080575 -0.008824 -0.086318 -0.000096 -0.002911 -0.999996
0.080575 -0.008824 -0.086318 0.000096 0.002911 0.999996
0.076629 -0.028962 -0.086259 0.000096 0.002911 0.999996
0.086010 -0.099009 -0.086056 0.000096 0.002911 0.999996
0.076629 -0.028962 -0.086259 -0.000036 0.002893 0.999996
0.067607 -0.047392 -0.086206 -0.000036 0.002893 0.999996
0.086010 -0.099009 -0.086056 -0.000036 0.002893 0.999996
0.086010 -0.099009 -0.086056 -0.000020 0.002899 0.999996
0.067607 -0.047392 -0.086206 -0.000020 0.002899 0.999996
0.058538 -0.117481 -0.086003 -0.000020 0.002899 0.999996
0.067607 -0.047392 -0.086206 0.000018 0.002894 0.999996
0.054121 -0.062859 -0.086161 0.000018 0.002894 0.999996
0.058538 -0.117481 -0.086003 0.000018 0.002894 0.999996
0.054121 -0.062859 -0.086161 -0.000006 0.002892 0.999996
0.037092 -0.074309 -0.086128 -0.000006 0.002892 0.999996
0.058538 -0.117481 -0.086003 -0.000006 0.002892 0.999996
0.058538 -0.117481 -0.086003 -0.000002 0.002894 0.999996
0.037092 -0.074309 -0.086128 -0.000002 0.002894 0.999996
0.027221 -0.128213 -0.085972 -0.000002 0.002894 0.999996
0.037092 -0.074309 -0.086128 -0.000014 0.002897 0.999996
0.017680 -0.080961 -0.086109 -0.000014 0.002897 0.999996
0.027221 -0.128213 -0.085972 -0.000014 0.002897 0.999996
0.017680 -0.080961 -0.086109 0.000045 0.002908 0.999996
-0.002793 -0.082363 -0.086104 0.000045 0.002908 0.999996
0.027221 -0.128213 -0.085972 0.000045 0.002908 0.999996
0.027221 -0.128213 -0.085972 0.000014 0.002888 0.999996
-0.002793 -0.082363 -0.086104 0.000014 0.002888 0.999996
-0.005806 -0.130473 -0.085965 0.000014 0.002888 0.999996
-0.002793 -0.082363 -0.086104 -0.000030 0.002891 0.999996
-0.022931 -0.078418 -0.086116 -0.000030 0.002891 0.999996
-0.005806 -0.130473 -0.085965 -0.000030 0.002891 0.999996
-0.005806 -0.130473 -0.085965 -0.000018 0.002895 0.999996
-0.022931 -0.078418 -0.086116 -0.000018 0.002895 0.999996
-0.038294 -0.124109 -0.085984 -0.000018 0.002895 0.999996
-0.022931 -0.078418 -0.086116 0.000003 0.002888 0.999996
-0.041361 -0.069395 -0.086142 0.000003 0.002888 0.999996
-0.038294 -0.124109 -0.085984 0.000003 0.002888 0.999996
-0.041361 -0.069395 -0.086142 -0.000004 0.002888 0.999996
-0.056829 -0.055910 -0.086181 -0.000004 0.002888 0.999996
-0.038294 -0.124109 -0.085984 -0.000004 0.002888 0.999996
-0.038294 -0.124109 -0.085984 0.000002 0.002889 0.999996
-0.056829 -0.055910 -0.086181 0.000002 0.002889 0.999996
-0.068026 -0.109553 -0.086026 0.000002 0.002889 0.999996
-0.056829 -0.055910 -0.086181 0.000014 0.002887 0.999996
-0.068278 -0.038881 -0.086230 0.000014 0.002887 0.999996
-0.068026 -0.109553 -0.086026 0.000014 0.002887 0.999996
-0.068278 -0.038881 -0.086230 -0.000147 0.002886 0.999996
-0.074931 -0.019468 -0.086287 -0.000147 0.002886 0.999996
-0.068026 -0.109553 -0.086026 -0.000147 0.002886 0.999996
-0.068026 -0.109553 -0.086026 0.000001 0.002897 0.999996
-0.074931 -0.019468 -0.086287 0.000001 0.002897 0.999996
-0.092979 -0.087798 -0.086089 0.000001 0.002897 0.999996
-0.074931 -0.019468 -0.086287 0.000047 0.002885 0.999996
-0.076332 0.001004 -0.086346 0.000047 0.002885 0.999996
-0.092979 -0.087798 -0.086089 0.000047 0.002885 0.999996
-0.076332 0.001004 -0.086346 0.000001 0.002894 0.999996
-0.081767 0.091190 -0.086607 0.000001 0.002894 0.999996
-0.092979 -0.087798 -0.086089 0.000001 0.002894 0.999996
-0.081767 0.091190 -0.086607 -0.000011 0.002895 0.999996
-0.103523 0.066238 -0.086535 -0.000011 0.002895 0.999996
-0.092979 -0.087798 -0.086089 -0.000011 0.002895 0.999996
-0.092979 -0.087798 -0.086089 0.000033 0.002898 0.999996
-0.103523 0.066238 -0.086535 0.000033 0.002898 0.999996
-0.111450 -0.060326 -0.086168 0.000033 0.002898 0.999996
-0.103523 0.066238 -0.086535 -0.000017 0.002901 0.999996
-0.118079 0.036505 -0.086449 -0.000017 0.002901 0.999996
-0.111450 -0.060326 -0.086168 -0.000017 0.002901 0.999996
-0.111450 -0.060326 -0.086168 -0.000014 0.002901 0.999996
-0.118079 0.036505 -0.086449 -0.000014 0.002901 0.999996
-0.122182 -0.029009 -0.086259 -0.000014 0.002901 0.999996
-0.124443 0.004018 -0.086355 -0.000051 0.002903 0.999996
-0.122182 -0.029009 -0.086259 -0.000051 0.002903 0.999996
-0.118079 0.036505 -0.086449 -0.000051 0.002903 0.999996
0.128685 -0.011837 -0.086309 -0.000050 0.002903 0.999996
0.126425 0.021190 -0.086405 -0.000050 0.002903 0.999996
0.122321 -0.044324 -0.086215 -0.000050 0.002903 0.999996
0.126425 0.021190 -0.086405 0.000064 0.002896 0.999996
0.115693 0.052507 -0.086495 0.000064 0.002896 0.999996
0.122321 -0.044324 -0.086215 0.000064 0.002896 0.999996
0.122321 -0.044324 -0.086215 0.000002 0.002892 0.999996
0.115693 0.052507 -0.086495 0.000002 0.002892 0.999996
0.107765 -0.074057 -0.086129 0.000002 0.002892 0.999996
0.115693 0.052507 -0.086495 -0.000028 0.002894 0.999996
0.097221 0.079979 -0.086575 -0.000028 0.002894 0.999996
0.107765 -0.074057 -0.086129 -0.000028 0.002894 0.999996
0.107765 -0.074057 -0.086129 0.000032 0.002898 0.999996
0.097221 0.079979 -0.086575 0.000032 0.002898 0.999996
0.086010 -0.099009 -0.086056 0.000032 0.002898 0.999996
0.086010 -0.099009 -0.086056 -0.000045 0.002902 0.999996
0.097221 0.079979 -0.086575 -0.000045 0.002902 0.999996
0.080575 -0.008824 -0.086318 -0.000045 0.002902 0.999996
0.080575 -0.008824 -0.086318 0.000049 0.002885 0.999996
0.097221 0.079979 -0.086575 0.000049 0.002885 0.999996
0.079173 0.011649 -0.086377 0.000049 0.002885 0.999996
0.079173 0.011649 -0.086377 0.000021 0.002892 0.999996
0.097221 0.079979 -0.086575 0.000021 0.002892 0.999996
0.072521 0.031061 -0.086433 0.000021 0.002892 0.999996
0.097221 0.079979 -0.086575 0.000004 0.002901 0.999996
0.072269 0.101734 -0.086638 0.000004 0.002901 0.999996
0.072521 0.031061 -0.086433 0.000004 0.002901 0.999996
0.072521 0.031061 -0.086433 -0.000053 0.002901 0.999996
0.072269 0.101734 -0.086638 -0.000053 0.002901 0.999996
0.061071 0.048090 -0.086483 -0.000053 0.002901 0.999996
0.061071 0.048090 -0.086483 -0.000002 0.002890 0.999996
0.072269 0.101734 -0.086638 -0.000002 0.002890 0.999996
0.045604 0.061575 -0.086522 -0.000002 0.002890 0.999996
0.072269 0.101734 -0.086638 0.000001 0.002888 0.999996
0.042536 0.116289 -0.086680 0.000001 0.002888 0.999996
0.045604 0.061575 -0.086522 0.000001 0.002888 0.999996
0.045604 0.061575 -0.086522 0.000003 0.002888 0.999996
0.042536 0.116289 -0.086680 0.000003 0.002888 0.999996
0.027173 0.070598 -0.086548 0.000003 0.002888 0.999996
0.042536 0.116289 -0.086680 -0.000018 0.002895 0.999996
0.010049 0.122654 -0.086699 -0.000018 0.002895 0.999996
0.027173 0.070598 -0.086548 -0.000018 0.002895 0.999996
0.027173 0.070598 -0.086548 0.000024 0.002908 0.999996
0.010049 0.122654 -0.086699 0.000024 0.002908 0.999996
0.007035 0.074543 -0.086559 0.000024 0.002908 0.999996
0.007035 0.074543 -0.086559 -0.000004 0.002910 0.999996
0.010049 0.122654 -0.086699 -0.000004 0.002910 0.999996
-0.013437 0.073142 -0.086555 -0.000004 0.002910 0.999996
0.010049 0.122654 -0.086699 0.000013 0.002902 0.999996
-0.022979 0.120393 -0.086692 0.000013 0.002902 0.999996
-0.013437 0.073142 -0.086555 0.000013 0.002902 0.999996
-0.013437 0.073142 -0.086555 -0.000013 0.002897 0.999996
-0.022979 0.120393 -0.086692 -0.000013 0.002897 0.999996
-0.032850 0.066490 -0.086536 -0.000013 0.002897 0.999996
-0.032850 0.066490 -0.086536 -0.000009 0.002896 0.999996
-0.022979 0.120393 -0.086692 -0.000009 0.002896 0.999996
-0.049879 0.055040 -0.086503 -0.000009 0.002896 0.999996
-0.022979 0.120393 -0.086692 -0.000001 0.002892 0.999996
-0.054295 0.109661 -0.086661 -0.000001 0.002892 0.999996
-0.049879 0.055040 -0.086503 -0.000001 0.002892 0.999996
-0.049879 0.055040 -0.086503 0.000018 0.002894 0.999996
-0.054295 0.109661 -0.086661 0.000018 0.002894 0.999996
-0.063364 0.039572 -0.086458 0.000018 0.002894 0.999996
-0.063364 0.039572 -0.086458 0.000094 0.002884 0.999996
-0.054295 0.109661 -0.086661 0.000094 0.002884 0.999996
-0.072387 0.021142 -0.086404 0.000094 0.002884 0.999996
-0.054295 0.109661 -0.086661 0.000016 0.002900 0.999996
-0.081767 0.091190 -0.086607 0.000016 0.002900 0.999996
-0.072387 0.021142 -0.086404 0.000016 0.002900 0.999996
-0.076332 0.001004 -0.086346 -0.000055 0.002891 0.999996
-0.072387 0.021142 -0.086404 -0.000055 0.002891 0.999996
-0.081767 0.091190 -0.086607 -0.000055 0.002891 0.999996
3 0 1 2
3 3 4 5
3 6 7 8
3 9 10 11
3 12 13 14
3 15 16 17
3 18 19 20
3 21 22 23
3 24 25 26
3 27 28 29
3 30 31 32
3 30 32 33
3 34 35 36
3 37 38 39
3 40 41 42
3 43 44 45
3 46 47 48
3 49 50 51
3 52 53 54
3 55 56 57
3 58 59 60
3 61 62 63
3 64 65 66
3 65 64 67
3 68 69 70
3 69 68 71
3 72 73 74
3 75 76 77
3 78 79 80
3 79 78 81
3 82 83 84
3 83 82 85
3 86 87 88
3 87 86 89
3 90 91 92
3 91 90 93
3 94 95 96
3 95 94 97
3 98 99 100
3 101 102 103
3 104 105 106
3 107 108 109
3 110 111 112
3 111 110 113
3 114 115 116
3 115 114 117
3 118 119 120
3 119 118 121
3 122 123 124
3 123 122 125
3 126 127 128
3 127 126 129
3 130 131 132
3 133 134 135
3 136 137 138
3 137 136 139
3 140 141 142
3 143 144 145
3 146 147 148
3 149 150 151
3 152 153 154
3 153 152 155
3 156 157 158
3 157 156 159
3 160 161 162
3 161 160 163
3 164 165 166
3 165 164 167
3 168 169 170
3 169 168 171
3 172 173 174
3 175 176 177
3 178 179 180
3 181 182 183
3 184 185 186
3 187 188 189
3 190 191 192
3 193 194 195
3 196 197 198
3 199 200 201
3 202 203 204
3 203 205 204
3 206 207 208
3 209 210 211
3 212 213 214
3 215 216 217
3 218 219 220
3 221 222 223
3 224 225 226
3 227 228 229
3 230 231 232
3 233 234 235
3 236 237 238
3 239 238 237
3 240 241 242
3 243 242 241
3 244 245 246
3 247 248 249
3 250 251 252
3 253 252 251
3 254 255 256
3 257 256 255
3 258 259 260
3 261 260 259
3 262 263 264
3 265 264 263
3 266 267 268
3 269 268 267
3 270 271 272
3 273 274 275
3 276 277 278
3 279 280 281
3 282 283 284
3 285 284 283
3 286 287 288
3 289 288 287
3 290 291 292
3 293 292 291
3 294 295 296
3 297 296 295
3 298 299 300
3 301 300 299
3 302 303 304
3 305 306 307
3 308 309 310
3 311 310 309
3 312 313 314
3 315 316 317
3 318 319 320
3 321 322 323
3 324 325 326
3 327 326 325
3 328 329 330
3 331 330 329
3 332 333 334
3 335 334 333
3 336 337 338
3 339 338 337
3 340 341 342
3 343 342 341
3 344 345 346
3 347 348 349
3 350 351 352
3 353 354 355
3 356 357 358
3 359 360 361
3 362 363 364
3 365 366 367
3 368 369 370
3 371 372 373
3 374 375 376
3 377 378 379
3 380 381 382
3 383 384 385
3 386 387 388
3 389 390 391
3 392 393 394
3 395 396 397
3 398 399 400
3 401 402 403
3 404 405 406
3 407 408 409
3 410 411 412
3 413 414 415
3 416 417 418
3 419 420 421
3 422 423 424
3 425 426 427
3 428 429 430
3 431 432 433
3 434 435 436
3 437 438 439
3 440 441 442
3 443 444 445
3 446 447 448
3 449 450 451
3 452 453 454
3 455 456 457
3 458 459 460
3 461 462 463
3 464 465 466
3 467 468 469
3 470 471 472
3 473 474 475
3 476 477 478
3 479 480 481
3 482 483 484
3 485 486 487
3 488 489 490
3 491 492 493
3 494 495 496
3 497 498 499
3 500 501 502
3 503 504 505
3 506 507 508
3 509 510 511
3 512 513 514
3 515 516 517
3 518 519 520
3 521 522 523
3 524 525 526
3 527 528 529
3 530 531 532
3 533 534 535
3 536 537 538
3 539 540 541
3 542 543 544
3 545 546 547
3 548 549 550
3 551 552 553
3 554 555 556
3 557 558 559
3 560 561 562
3 563 564 565
3 566 567 568
3 569 570 571
3 572 573 574
3 575 576 577
3 578 579 580
3 581 582 583
3 584 585 586
3 587 588 589
3 590 591 592
3 593 594 595
3 596 597 598
3 599 600 601
3 602 603 604
3 605 606 607
3 608 609 610
3 611 612 613
3 614 615 616
3 617 618 619
3 620 621 622
3 623 624 625
3 626 627 628
3 629 630 631
