ply
format ascii 1.0
comment Created by Blender 2.81 (sub 16) - www.blender.org, source file: ''
element vertex 652
property float x
property float y
property float z
property float nx
property float ny
property float nz
element face 236
property list uchar uint vertex_indices
end_header
0.028424 -0.071097 -0.034710 -0.973718 0.000007 -0.227758
0.037673 -0.073641 -0.074253 -0.973718 0.000007 -0.227758
0.033010 -0.075042 -0.054319 -0.973718 0.000007 -0.227758
0.037673 -0.073641 -0.074253 -0.973716 0.000136 -0.227766
0.028424 -0.071097 -0.034710 -0.973716 0.000136 -0.227766
0.042095 -0.066988 -0.093156 -0.973716 0.000136 -0.227766
0.042095 -0.066988 -0.093156 -0.973713 -0.000056 -0.227778
0.028424 -0.071097 -0.034710 -0.973713 -0.000056 -0.227778
0.024225 -0.062074 -0.016765 -0.973713 -0.000056 -0.227778
0.042095 -0.066988 -0.093156 -0.973713 -0.000039 -0.227779
0.024225 -0.062074 -0.016765 -0.973713 -0.000039 -0.227779
0.045974 -0.055539 -0.109737 -0.973713 -0.000039 -0.227779
0.045974 -0.055539 -0.109737 -0.973714 0.000060 -0.227773
0.024225 -0.062074 -0.016765 -0.973714 0.000060 -0.227773
0.020703 -0.048589 -0.001703 -0.973714 0.000060 -0.227773
0.045974 -0.055539 -0.109737 -0.973715 -0.000000 -0.227769
0.020703 -0.048589 -0.001703 -0.973715 -0.000000 -0.227769
0.049045 -0.040071 -0.122868 -0.973715 -0.000000 -0.227769
0.049045 -0.040071 -0.122868 -0.973714 -0.000049 -0.227772
0.020703 -0.048589 -0.001703 -0.973714 -0.000049 -0.227772
0.018094 -0.031560 0.009446 -0.973714 -0.000049 -0.227772
0.049045 -0.040071 -0.122868 -0.973714 -0.000009 -0.227775
0.018094 -0.031560 0.009446 -0.973714 -0.000009 -0.227775
0.051100 -0.021641 -0.131654 -0.973714 -0.000009 -0.227775
0.051100 -0.021641 -0.131654 -0.973714 0.000014 -0.227773
0.018094 -0.031560 0.009446 -0.973714 0.000014 -0.227773
0.016579 -0.012147 0.015923 -0.973714 0.000014 -0.227773
0.051100 -0.021641 -0.131654 -0.973714 0.000028 -0.227774
0.016579 -0.012147 0.015923 -0.973714 0.000028 -0.227774
0.051999 -0.001503 -0.135495 -0.973714 0.000028 -0.227774
0.051999 -0.001503 -0.135495 -0.973714 0.000003 -0.227776
0.016579 -0.012147 0.015923 -0.973714 0.000003 -0.227776
0.016260 0.008325 0.017287 -0.973714 0.000003 -0.227776
0.051680 0.018970 -0.134130 -0.973714 0.000003 -0.227776
0.051680 0.018970 -0.134130 -0.973714 0.000028 -0.227774
0.016260 0.008325 0.017287 -0.973714 0.000028 -0.227774
0.017159 0.028463 0.013446 -0.973714 0.000028 -0.227774
0.051680 0.018970 -0.134130 -0.973715 -0.000038 -0.227770
0.017159 0.028463 0.013446 -0.973715 -0.000038 -0.227770
0.050164 0.038382 -0.127653 -0.973715 -0.000038 -0.227770
0.050164 0.038382 -0.127653 -0.973715 -0.000005 -0.227768
0.017159 0.028463 0.013446 -0.973715 -0.000005 -0.227768
0.019214 0.046894 0.004661 -0.973715 -0.000005 -0.227768
0.050164 0.038382 -0.127653 -0.973715 0.000007 -0.227769
0.019214 0.046894 0.004661 -0.973715 0.000007 -0.227769
0.047556 0.055411 -0.116504 -0.973715 0.000007 -0.227769
0.047556 0.055411 -0.116504 -0.973715 -0.000001 -0.227769
0.019214 0.046894 0.004661 -0.973715 -0.000001 -0.227769
0.022286 0.062361 -0.008471 -0.973715 -0.000001 -0.227769
0.047556 0.055411 -0.116504 -0.973715 -0.000020 -0.227768
0.022286 0.062361 -0.008471 -0.973715 -0.000020 -0.227768
0.044033 0.068897 -0.101443 -0.973715 -0.000020 -0.227768
0.044033 0.068897 -0.101443 -0.973715 -0.000022 -0.227768
0.022286 0.062361 -0.008471 -0.973715 -0.000022 -0.227768
0.026164 0.073811 -0.025052 -0.973715 -0.000022 -0.227768
0.044033 0.068897 -0.101443 -0.973715 0.000042 -0.227772
0.026164 0.073811 -0.025052 -0.973715 0.000042 -0.227772
0.039836 0.077919 -0.083498 -0.973715 0.000042 -0.227772
0.039836 0.077919 -0.083498 -0.973713 -0.000051 -0.227778
0.026164 0.073811 -0.025052 -0.973713 -0.000051 -0.227778
0.030585 0.080463 -0.043954 -0.973713 -0.000051 -0.227778
0.039836 0.077919 -0.083498 -0.973710 0.000191 -0.227793
0.030585 0.080463 -0.043954 -0.973710 0.000191 -0.227793
0.035249 0.081865 -0.063889 -0.973710 0.000191 -0.227793
0.044033 0.068897 -0.101443 -0.149690 -0.753727 0.639913
-0.043513 0.055411 -0.137807 -0.149690 -0.753727 0.639913
0.047556 0.055411 -0.116504 -0.149690 -0.753727 0.639913
-0.047036 0.068897 -0.122746 -0.149690 -0.753727 0.639913
0.050164 0.038382 -0.127653 -0.189019 -0.557982 0.808040
-0.043513 0.055411 -0.137807 -0.189019 -0.557982 0.808040
-0.040905 0.038382 -0.148956 -0.189019 -0.557982 0.808040
-0.043513 0.055411 -0.137807 -0.189018 -0.557982 0.808040
0.050164 0.038382 -0.127653 -0.189018 -0.557982 0.808040
0.047556 0.055411 -0.116504 -0.189018 -0.557982 0.808040
0.051680 0.018970 -0.134130 -0.215473 -0.324170 0.921132
-0.040905 0.038382 -0.148956 -0.215473 -0.324170 0.921132
-0.039390 0.018970 -0.155433 -0.215473 -0.324170 0.921132
-0.040905 0.038382 -0.148956 -0.215473 -0.324171 0.921132
0.051680 0.018970 -0.134130 -0.215473 -0.324171 0.921132
0.050164 0.038382 -0.127653 -0.215473 -0.324171 0.921132
0.051999 -0.001503 -0.135495 -0.227241 -0.068321 0.971439
-0.039390 0.018970 -0.155433 -0.227241 -0.068321 0.971439
-0.039070 -0.001503 -0.156798 -0.227241 -0.068321 0.971439
0.051680 0.018970 -0.134130 -0.227241 -0.068321 0.971439
0.051100 -0.021641 -0.131654 -0.223525 0.192245 0.955551
-0.039070 -0.001503 -0.156798 -0.223525 0.192245 0.955551
-0.039969 -0.021641 -0.152957 -0.223525 0.192245 0.955551
0.051999 -0.001503 -0.135495 -0.223525 0.192245 0.955551
0.049045 -0.040071 -0.122868 -0.204572 0.439714 0.874530
-0.039969 -0.021641 -0.152957 -0.204572 0.439714 0.874530
-0.042024 -0.040071 -0.144171 -0.204572 0.439714 0.874530
-0.039969 -0.021641 -0.152957 -0.204572 0.439715 0.874529
0.049045 -0.040071 -0.122868 -0.204572 0.439715 0.874529
0.051100 -0.021641 -0.131654 -0.204572 0.439715 0.874529
0.045974 -0.055539 -0.109737 -0.171689 0.657139 0.733956
-0.042024 -0.040071 -0.144171 -0.171689 0.657139 0.733956
-0.045095 -0.055539 -0.131041 -0.171689 0.657139 0.733956
0.049045 -0.040071 -0.122868 -0.171689 0.657139 0.733956
-0.048974 -0.066988 -0.114459 -0.127085 0.829879 0.543278
0.045974 -0.055539 -0.109737 -0.127085 0.829879 0.543278
-0.045095 -0.055539 -0.131041 -0.127085 0.829879 0.543278
0.045974 -0.055539 -0.109737 -0.127085 0.829878 0.543278
-0.048974 -0.066988 -0.114459 -0.127085 0.829878 0.543278
0.042095 -0.066988 -0.093156 -0.127085 0.829878 0.543278
-0.053396 -0.073641 -0.095556 -0.073843 0.945989 0.315676
0.042095 -0.066988 -0.093156 -0.073843 0.945989 0.315676
-0.048974 -0.066988 -0.114459 -0.073843 0.945989 0.315676
0.042095 -0.066988 -0.093156 -0.073843 0.945989 0.315675
-0.053396 -0.073641 -0.095556 -0.073843 0.945989 0.315675
0.037673 -0.073641 -0.074253 -0.073843 0.945989 0.315675
-0.058059 -0.075042 -0.075622 -0.015551 0.997667 0.066480
0.037673 -0.073641 -0.074253 -0.015551 0.997667 0.066480
-0.053396 -0.073641 -0.095556 -0.015551 0.997667 0.066480
0.037673 -0.073641 -0.074253 -0.015551 0.997667 0.066480
-0.058059 -0.075042 -0.075622 -0.015551 0.997667 0.066480
0.033010 -0.075042 -0.054319 -0.015551 0.997667 0.066480
-0.062645 -0.071097 -0.056014 0.043788 0.981347 -0.187190
0.033010 -0.075042 -0.054319 0.043788 0.981347 -0.187190
-0.058059 -0.075042 -0.075622 0.043788 0.981347 -0.187190
0.028424 -0.071097 -0.034710 0.043788 0.981347 -0.187190
-0.066844 -0.062074 -0.038068 0.100155 0.898139 -0.428153
0.028424 -0.071097 -0.034710 0.100155 0.898139 -0.428153
-0.062645 -0.071097 -0.056014 0.100155 0.898139 -0.428153
0.024225 -0.062074 -0.016765 0.100155 0.898139 -0.428153
-0.070367 -0.048589 -0.023007 0.149678 0.753772 -0.639862
0.024225 -0.062074 -0.016765 0.149678 0.753772 -0.639862
-0.066844 -0.062074 -0.038068 0.149678 0.753772 -0.639862
0.020703 -0.048589 -0.001703 0.149678 0.753772 -0.639862
0.018094 -0.031560 0.009446 0.189019 0.557981 -0.808040
-0.070367 -0.048589 -0.023007 0.189019 0.557981 -0.808040
-0.072975 -0.031560 -0.011857 0.189019 0.557981 -0.808040
0.020703 -0.048589 -0.001703 0.189019 0.557981 -0.808040
0.016579 -0.012147 0.015923 0.215475 0.324156 -0.921137
-0.072975 -0.031560 -0.011857 0.215475 0.324156 -0.921137
-0.074490 -0.012147 -0.005380 0.215475 0.324156 -0.921137
-0.072975 -0.031560 -0.011857 0.215474 0.324156 -0.921137
0.016579 -0.012147 0.015923 0.215474 0.324156 -0.921137
0.018094 -0.031560 0.009446 0.215474 0.324156 -0.921137
0.016260 0.008325 0.017287 0.227242 0.068276 -0.971442
-0.074490 -0.012147 -0.005380 0.227242 0.068276 -0.971442
-0.074809 0.008325 -0.004016 0.227242 0.068276 -0.971442
-0.074490 -0.012147 -0.005380 0.227242 0.068275 -0.971442
0.016260 0.008325 0.017287 0.227242 0.068275 -0.971442
0.016579 -0.012147 0.015923 0.227242 0.068275 -0.971442
0.017159 0.028463 0.013446 0.223525 -0.192245 -0.955551
-0.074809 0.008325 -0.004016 0.223525 -0.192245 -0.955551
-0.073911 0.028463 -0.007857 0.223525 -0.192245 -0.955551
0.016260 0.008325 0.017287 0.223525 -0.192245 -0.955551
0.019214 0.046894 0.004661 0.204583 -0.439695 -0.874537
-0.073911 0.028463 -0.007857 0.204583 -0.439695 -0.874537
-0.071856 0.046894 -0.016643 0.204583 -0.439695 -0.874537
-0.073911 0.028463 -0.007857 0.204578 -0.439655 -0.874558
0.019214 0.046894 0.004661 0.204578 -0.439655 -0.874558
0.017159 0.028463 0.013446 0.204578 -0.439655 -0.874558
0.022286 0.062361 -0.008471 0.171684 -0.657163 -0.733935
-0.071856 0.046894 -0.016643 0.171684 -0.657163 -0.733935
-0.068784 0.062361 -0.029774 0.171684 -0.657163 -0.733935
-0.071856 0.046894 -0.016643 0.171686 -0.657191 -0.733910
0.022286 0.062361 -0.008471 0.171686 -0.657191 -0.733910
0.019214 0.046894 0.004661 0.171686 -0.657191 -0.733910
0.022286 0.062361 -0.008471 0.127092 -0.829856 -0.543311
-0.064905 0.073811 -0.046355 0.127092 -0.829856 -0.543311
0.026164 0.073811 -0.025052 0.127092 -0.829856 -0.543311
-0.068784 0.062361 -0.029774 0.127092 -0.829856 -0.543311
0.026164 0.073811 -0.025052 0.073837 -0.945999 -0.315647
-0.060484 0.080463 -0.065257 0.073837 -0.945999 -0.315647
0.030585 0.080463 -0.043954 0.073837 -0.945999 -0.315647
-0.064905 0.073811 -0.046355 0.073837 -0.945999 -0.315647
0.030585 0.080463 -0.043954 0.015561 -0.997663 -0.066524
-0.055821 0.081865 -0.085192 0.015561 -0.997663 -0.066524
0.035249 0.081865 -0.063889 0.015561 -0.997663 -0.066524
-0.055821 0.081865 -0.085192 0.015561 -0.997664 -0.066524
0.030585 0.080463 -0.043954 0.015561 -0.997664 -0.066524
-0.060484 0.080463 -0.065257 0.015561 -0.997664 -0.066524
0.035249 0.081865 -0.063889 -0.043799 -0.981338 0.187236
-0.051233 0.077919 -0.104801 -0.043799 -0.981338 0.187236
0.039836 0.077919 -0.083498 -0.043799 -0.981338 0.187236
-0.055821 0.081865 -0.085192 -0.043799 -0.981338 0.187236
0.039836 0.077919 -0.083498 -0.100146 -0.898159 0.428115
-0.047036 0.068897 -0.122746 -0.100146 -0.898159 0.428115
0.044033 0.068897 -0.101443 -0.100146 -0.898159 0.428115
-0.051233 0.077919 -0.104801 -0.100146 -0.898159 0.428115
0.035249 0.081865 -0.063889 0.973710 -0.000191 0.227793
0.030585 0.080463 -0.043954 0.973710 -0.000191 0.227793
0.039836 0.077919 -0.083498 0.973710 -0.000191 0.227793
0.030585 0.080463 -0.043954 0.973713 0.000051 0.227778
0.026164 0.073811 -0.025052 0.973713 0.000051 0.227778
0.039836 0.077919 -0.083498 0.973713 0.000051 0.227778
0.039836 0.077919 -0.083498 0.973715 -0.000042 0.227772
0.026164 0.073811 -0.025052 0.973715 -0.000042 0.227772
0.044033 0.068897 -0.101443 0.973715 -0.000042 0.227772
0.026164 0.073811 -0.025052 0.973715 0.000022 0.227768
0.022286 0.062361 -0.008471 0.973715 0.000022 0.227768
0.044033 0.068897 -0.101443 0.973715 0.000022 0.227768
0.044033 0.068897 -0.101443 0.973715 0.000020 0.227768
0.022286 0.062361 -0.008471 0.973715 0.000020 0.227768
0.047556 0.055411 -0.116504 0.973715 0.000020 0.227768
0.022286 0.062361 -0.008471 0.973715 0.000001 0.227769
0.019214 0.046894 0.004661 0.973715 0.000001 0.227769
0.047556 0.055411 -0.116504 0.973715 0.000001 0.227769
0.047556 0.055411 -0.116504 0.973715 -0.000007 0.227769
0.019214 0.046894 0.004661 0.973715 -0.000007 0.227769
0.050164 0.038382 -0.127653 0.973715 -0.000007 0.227769
0.019214 0.046894 0.004661 0.973715 0.000005 0.227768
0.017159 0.028463 0.013446 0.973715 0.000005 0.227768
0.050164 0.038382 -0.127653 0.973715 0.000005 0.227768
0.050164 0.038382 -0.127653 0.973715 0.000038 0.227770
0.017159 0.028463 0.013446 0.973715 0.000038 0.227770
0.051680 0.018970 -0.134130 0.973715 0.000038 0.227770
0.017159 0.028463 0.013446 0.973714 -0.000028 0.227774
0.016260 0.008325 0.017287 0.973714 -0.000028 0.227774
0.051680 0.018970 -0.134130 0.973714 -0.000028 0.227774
0.051680 0.018970 -0.134130 0.973714 -0.000003 0.227776
0.016260 0.008325 0.017287 0.973714 -0.000003 0.227776
0.051999 -0.001503 -0.135495 0.973714 -0.000003 0.227776
0.016579 -0.012147 0.015923 0.973714 -0.000003 0.227776
0.051999 -0.001503 -0.135495 0.973714 -0.000028 0.227774
0.016579 -0.012147 0.015923 0.973714 -0.000028 0.227774
0.051100 -0.021641 -0.131654 0.973714 -0.000028 0.227774
0.016579 -0.012147 0.015923 0.973714 -0.000014 0.227773
0.018094 -0.031560 0.009446 0.973714 -0.000014 0.227773
0.051100 -0.021641 -0.131654 0.973714 -0.000014 0.227773
0.051100 -0.021641 -0.131654 0.973714 0.000009 0.227775
0.018094 -0.031560 0.009446 0.973714 0.000009 0.227775
0.049045 -0.040071 -0.122868 0.973714 0.000009 0.227775
0.018094 -0.031560 0.009446 0.973714 0.000049 0.227772
0.020703 -0.048589 -0.001703 0.973714 0.000049 0.227772
0.049045 -0.040071 -0.122868 0.973714 0.000049 0.227772
0.049045 -0.040071 -0.122868 0.973715 0.000000 0.227769
0.020703 -0.048589 -0.001703 0.973715 0.000000 0.227769
0.045974 -0.055539 -0.109737 0.973715 0.000000 0.227769
0.020703 -0.048589 -0.001703 0.973714 -0.000060 0.227773
0.024225 -0.062074 -0.016765 0.973714 -0.000060 0.227773
0.045974 -0.055539 -0.109737 0.973714 -0.000060 0.227773
0.045974 -0.055539 -0.109737 0.973713 0.000039 0.227779
0.024225 -0.062074 -0.016765 0.973713 0.000039 0.227779
0.042095 -0.066988 -0.093156 0.973713 0.000039 0.227779
0.024225 -0.062074 -0.016765 0.973713 0.000056 0.227778
0.028424 -0.071097 -0.034710 0.973713 0.000056 0.227778
0.042095 -0.066988 -0.093156 0.973713 0.000056 0.227778
0.042095 -0.066988 -0.093156 0.973716 -0.000136 0.227766
0.028424 -0.071097 -0.034710 0.973716 -0.000136 0.227766
0.037673 -0.073641 -0.074253 0.973716 -0.000136 0.227766
0.033010 -0.075042 -0.054319 0.973718 -0.000007 0.227758
0.037673 -0.073641 -0.074253 0.973718 -0.000007 0.227758
0.028424 -0.071097 -0.034710 0.973718 -0.000007 0.227758
-0.047036 0.068897 -0.122746 0.149690 0.753727 -0.639913
0.044033 0.068897 -0.101443 0.149690 0.753727 -0.639913
-0.043513 0.055411 -0.137807 0.149690 0.753727 -0.639913
0.047556 0.055411 -0.116504 0.149690 0.753727 -0.639913
0.047556 0.055411 -0.116504 0.189018 0.557982 -0.808040
0.050164 0.038382 -0.127653 0.189018 0.557982 -0.808040
-0.043513 0.055411 -0.137807 0.189018 0.557982 -0.808040
-0.040905 0.038382 -0.148956 0.189019 0.557982 -0.808040
-0.043513 0.055411 -0.137807 0.189019 0.557982 -0.808040
0.050164 0.038382 -0.127653 0.189019 0.557982 -0.808040
0.050164 0.038382 -0.127653 0.215473 0.324171 -0.921132
0.051680 0.018970 -0.134130 0.215473 0.324171 -0.921132
-0.040905 0.038382 -0.148956 0.215473 0.324171 -0.921132
-0.039390 0.018970 -0.155433 0.215473 0.324170 -0.921132
-0.040905 0.038382 -0.148956 0.215473 0.324170 -0.921132
0.051680 0.018970 -0.134130 0.215473 0.324170 -0.921132
0.051680 0.018970 -0.134130 0.227241 0.068321 -0.971439
0.051999 -0.001503 -0.135495 0.227241 0.068321 -0.971439
-0.039390 0.018970 -0.155433 0.227241 0.068321 -0.971439
-0.039070 -0.001503 -0.156798 0.227241 0.068321 -0.971439
0.051999 -0.001503 -0.135495 0.223525 -0.192245 -0.955551
0.051100 -0.021641 -0.131654 0.223525 -0.192245 -0.955551
-0.039070 -0.001503 -0.156798 0.223525 -0.192245 -0.955551
-0.039969 -0.021641 -0.152957 0.223525 -0.192245 -0.955551
0.051100 -0.021641 -0.131654 0.204572 -0.439715 -0.874529
0.049045 -0.040071 -0.122868 0.204572 -0.439715 -0.874529
-0.039969 -0.021641 -0.152957 0.204572 -0.439715 -0.874529
-0.042024 -0.040071 -0.144171 0.204572 -0.439714 -0.874530
-0.039969 -0.021641 -0.152957 0.204572 -0.439714 -0.874530
0.049045 -0.040071 -0.122868 0.204572 -0.439714 -0.874530
0.049045 -0.040071 -0.122868 0.171689 -0.657139 -0.733956
0.045974 -0.055539 -0.109737 0.171689 -0.657139 -0.733956
-0.042024 -0.040071 -0.144171 0.171689 -0.657139 -0.733956
-0.045095 -0.055539 -0.131041 0.171689 -0.657139 -0.733956
0.042095 -0.066988 -0.093156 0.127085 -0.829878 -0.543278
-0.048974 -0.066988 -0.114459 0.127085 -0.829878 -0.543278
0.045974 -0.055539 -0.109737 0.127085 -0.829878 -0.543278
-0.045095 -0.055539 -0.131041 0.127085 -0.829879 -0.543278
0.045974 -0.055539 -0.109737 0.127085 -0.829879 -0.543278
-0.048974 -0.066988 -0.114459 0.127085 -0.829879 -0.543278
0.037673 -0.073641 -0.074253 0.073843 -0.945989 -0.315675
-0.053396 -0.073641 -0.095556 0.073843 -0.945989 -0.315675
0.042095 -0.066988 -0.093156 0.073843 -0.945989 -0.315675
-0.048974 -0.066988 -0.114459 0.073843 -0.945989 -0.315676
0.042095 -0.066988 -0.093156 0.073843 -0.945989 -0.315676
-0.053396 -0.073641 -0.095556 0.073843 -0.945989 -0.315676
0.033010 -0.075042 -0.054319 0.015551 -0.997667 -0.066480
-0.058059 -0.075042 -0.075622 0.015551 -0.997667 -0.066480
0.037673 -0.073641 -0.074253 0.015551 -0.997667 -0.066480
-0.053396 -0.073641 -0.095556 0.015551 -0.997667 -0.066480
0.037673 -0.073641 -0.074253 0.015551 -0.997667 -0.066480
-0.058059 -0.075042 -0.075622 0.015551 -0.997667 -0.066480
0.028424 -0.071097 -0.034710 -0.043788 -0.981347 0.187190
-0.062645 -0.071097 -0.056014 -0.043788 -0.981347 0.187190
0.033010 -0.075042 -0.054319 -0.043788 -0.981347 0.187190
-0.058059 -0.075042 -0.075622 -0.043788 -0.981347 0.187190
0.024225 -0.062074 -0.016765 -0.100155 -0.898139 0.428153
-0.066844 -0.062074 -0.038068 -0.100155 -0.898139 0.428153
0.028424 -0.071097 -0.034710 -0.100155 -0.898139 0.428153
-0.062645 -0.071097 -0.056014 -0.100155 -0.898139 0.428153
0.020703 -0.048589 -0.001703 -0.149678 -0.753772 0.639862
-0.070367 -0.048589 -0.023007 -0.149678 -0.753772 0.639862
0.024225 -0.062074 -0.016765 -0.149678 -0.753772 0.639862
-0.066844 -0.062074 -0.038068 -0.149678 -0.753772 0.639862
0.020703 -0.048589 -0.001703 -0.189019 -0.557981 0.808040
0.018094 -0.031560 0.009446 -0.189019 -0.557981 0.808040
-0.070367 -0.048589 -0.023007 -0.189019 -0.557981 0.808040
-0.072975 -0.031560 -0.011857 -0.189019 -0.557981 0.808040
0.018094 -0.031560 0.009446 -0.215474 -0.324156 0.921137
0.016579 -0.012147 0.015923 -0.215474 -0.324156 0.921137
-0.072975 -0.031560 -0.011857 -0.215474 -0.324156 0.921137
-0.074490 -0.012147 -0.005380 -0.215475 -0.324156 0.921137
-0.072975 -0.031560 -0.011857 -0.215475 -0.324156 0.921137
0.016579 -0.012147 0.015923 -0.215475 -0.324156 0.921137
0.016579 -0.012147 0.015923 -0.227242 -0.068275 0.971442
0.016260 0.008325 0.017287 -0.227242 -0.068275 0.971442
-0.074490 -0.012147 -0.005380 -0.227242 -0.068275 0.971442
-0.074809 0.008325 -0.004016 -0.227242 -0.068276 0.971442
-0.074490 -0.012147 -0.005380 -0.227242 -0.068276 0.971442
0.016260 0.008325 0.017287 -0.227242 -0.068276 0.971442
0.016260 0.008325 0.017287 -0.223525 0.192245 0.955551
0.017159 0.028463 0.013446 -0.223525 0.192245 0.955551
-0.074809 0.008325 -0.004016 -0.223525 0.192245 0.955551
-0.073911 0.028463 -0.007857 -0.223525 0.192245 0.955551
0.017159 0.028463 0.013446 -0.204578 0.439655 0.874558
0.019214 0.046894 0.004661 -0.204578 0.439655 0.874558
-0.073911 0.028463 -0.007857 -0.204578 0.439655 0.874558
-0.071856 0.046894 -0.016643 -0.204583 0.439695 0.874537
-0.073911 0.028463 -0.007857 -0.204583 0.439695 0.874537
0.019214 0.046894 0.004661 -0.204583 0.439695 0.874537
0.019214 0.046894 0.004661 -0.171686 0.657191 0.733910
0.022286 0.062361 -0.008471 -0.171686 0.657191 0.733910
-0.071856 0.046894 -0.016643 -0.171686 0.657191 0.733910
-0.068784 0.062361 -0.029774 -0.171684 0.657163 0.733935
-0.071856 0.046894 -0.016643 -0.171684 0.657163 0.733935
0.022286 0.062361 -0.008471 -0.171684 0.657163 0.733935
-0.068784 0.062361 -0.029774 -0.127092 0.829856 0.543311
0.022286 0.062361 -0.008471 -0.127092 0.829856 0.543311
-0.064905 0.073811 -0.046355 -0.127092 0.829856 0.543311
0.026164 0.073811 -0.025052 -0.127092 0.829856 0.543311
-0.064905 0.073811 -0.046355 -0.073837 0.945999 0.315647
0.026164 0.073811 -0.025052 -0.073837 0.945999 0.315647
-0.060484 0.080463 -0.065257 -0.073837 0.945999 0.315647
0.030585 0.080463 -0.043954 -0.073837 0.945999 0.315647
-0.060484 0.080463 -0.065257 -0.015561 0.997664 0.066524
0.030585 0.080463 -0.043954 -0.015561 0.997664 0.066524
-0.055821 0.081865 -0.085192 -0.015561 0.997664 0.066524
0.035249 0.081865 -0.063889 -0.015561 0.997663 0.066524
-0.055821 0.081865 -0.085192 -0.015561 0.997663 0.066524
0.030585 0.080463 -0.043954 -0.015561 0.997663 0.066524
-0.055821 0.081865 -0.085192 0.043799 0.981338 -0.187236
0.035249 0.081865 -0.063889 0.043799 0.981338 -0.187236
-0.051233 0.077919 -0.104801 0.043799 0.981338 -0.187236
0.039836 0.077919 -0.083498 0.043799 0.981338 -0.187236
-0.051233 0.077919 -0.104801 0.100146 0.898159 -0.428115
0.039836 0.077919 -0.083498 0.100146 0.898159 -0.428115
-0.047036 0.068897 -0.122746 0.100146 0.898159 -0.428115
0.044033 0.068897 -0.101443 0.100146 0.898159 -0.428115
-0.078601 -0.080477 0.012193 -0.973716 0.000053 -0.227767
-0.062645 -0.071097 -0.056014 -0.973716 0.000053 -0.227767
-0.058059 -0.075042 -0.075622 -0.973716 0.000053 -0.227767
-0.062645 -0.071097 -0.056014 -0.973714 -0.000016 -0.227776
-0.078601 -0.080477 0.012193 -0.973714 -0.000016 -0.227776
-0.082808 -0.053005 0.030179 -0.973714 -0.000016 -0.227776
-0.062645 -0.071097 -0.056014 -0.973717 -0.000091 -0.227761
-0.082808 -0.053005 0.030179 -0.973717 -0.000091 -0.227761
-0.066844 -0.062074 -0.038068 -0.973717 -0.000091 -0.227761
-0.066844 -0.062074 -0.038068 -0.973715 -0.000018 -0.227770
-0.082808 -0.053005 0.030179 -0.973715 -0.000018 -0.227770
-0.070367 -0.048589 -0.023007 -0.973715 -0.000018 -0.227770
-0.070367 -0.048589 -0.023007 -0.973715 0.000002 -0.227769
-0.082808 -0.053005 0.030179 -0.973715 0.000002 -0.227769
-0.085253 -0.021689 0.040629 -0.973715 0.000002 -0.227769
-0.070367 -0.048589 -0.023007 -0.973715 0.000010 -0.227772
-0.085253 -0.021689 0.040629 -0.973715 0.000010 -0.227772
-0.072975 -0.031560 -0.011857 -0.973715 0.000010 -0.227772
-0.072975 -0.031560 -0.011857 -0.973714 0.000014 -0.227772
-0.085253 -0.021689 0.040629 -0.973714 0.000014 -0.227772
-0.074490 -0.012147 -0.005380 -0.973714 0.000014 -0.227772
-0.074490 -0.012147 -0.005380 -0.973713 -0.000013 -0.227778
-0.085253 -0.021689 0.040629 -0.973713 -0.000013 -0.227778
-0.085768 0.011339 0.042830 -0.973713 -0.000013 -0.227778
-0.074490 -0.012147 -0.005380 -0.973711 0.000004 -0.227786
-0.085768 0.011339 0.042830 -0.973711 0.000004 -0.227786
-0.074809 0.008325 -0.004016 -0.973711 0.000004 -0.227786
-0.074809 0.008325 -0.004016 -0.973712 -0.000024 -0.227784
-0.085768 0.011339 0.042830 -0.973712 -0.000024 -0.227784
-0.073911 0.028463 -0.007857 -0.973712 -0.000024 -0.227784
-0.073911 0.028463 -0.007857 -0.973715 0.000018 -0.227771
-0.085768 0.011339 0.042830 -0.973715 0.000018 -0.227771
-0.084318 0.043826 0.036633 -0.973715 0.000018 -0.227771
-0.073911 0.028463 -0.007857 -0.973716 -0.000002 -0.227764
-0.084318 0.043826 0.036633 -0.973716 -0.000002 -0.227764
-0.071856 0.046894 -0.016643 -0.973716 -0.000002 -0.227764
-0.071856 0.046894 -0.016643 -0.973716 -0.000001 -0.227764
-0.084318 0.043826 0.036633 -0.973716 -0.000001 -0.227764
-0.081003 0.073559 0.022460 -0.973716 -0.000001 -0.227764
-0.071856 0.046894 -0.016643 -0.973716 0.000002 -0.227766
-0.081003 0.073559 0.022460 -0.973716 0.000002 -0.227766
-0.068784 0.062361 -0.029774 -0.973716 0.000002 -0.227766
-0.068784 0.062361 -0.029774 -0.973714 0.000053 -0.227776
-0.081003 0.073559 0.022460 -0.973714 0.000053 -0.227776
-0.064905 0.073811 -0.046355 -0.973714 0.000053 -0.227776
-0.064905 0.073811 -0.046355 -0.973713 -0.000004 -0.227777
-0.081003 0.073559 0.022460 -0.973713 -0.000004 -0.227777
-0.076047 0.098511 0.001277 -0.973713 -0.000004 -0.227777
-0.064905 0.073811 -0.046355 -0.973715 -0.000022 -0.227768
-0.076047 0.098511 0.001277 -0.973715 -0.000022 -0.227768
-0.060484 0.080463 -0.065257 -0.973715 -0.000022 -0.227768
-0.060484 0.080463 -0.065257 -0.973717 -0.000048 -0.227761
-0.076047 0.098511 0.001277 -0.973717 -0.000048 -0.227761
-0.055821 0.081865 -0.085192 -0.973717 -0.000048 -0.227761
-0.055821 0.081865 -0.085192 -0.973713 0.000045 -0.227778
-0.076047 0.098511 0.001277 -0.973713 0.000045 -0.227778
-0.035278 0.087300 -0.173007 -0.973713 0.000045 -0.227778
-0.035278 0.087300 -0.173007 -0.973714 -0.000032 -0.227773
-0.076047 0.098511 0.001277 -0.973714 -0.000032 -0.227773
-0.040962 0.109055 -0.148711 -0.973714 -0.000032 -0.227773
-0.040962 0.109055 -0.148711 -0.973715 0.000028 -0.227770
-0.076047 0.098511 0.001277 -0.973715 0.000028 -0.227770
-0.069790 0.116983 -0.025473 -0.973715 0.000028 -0.227770
-0.040962 0.109055 -0.148711 -0.973715 -0.000001 -0.227768
-0.069790 0.116983 -0.025473 -0.973715 -0.000001 -0.227768
-0.047735 0.123611 -0.119759 -0.973715 -0.000001 -0.227768
-0.047735 0.123611 -0.119759 -0.973715 -0.000065 -0.227772
-0.069790 0.116983 -0.025473 -0.973715 -0.000065 -0.227772
-0.062657 0.127715 -0.055967 -0.973715 -0.000065 -0.227772
-0.047735 0.123611 -0.119759 -0.973713 0.000049 -0.227779
-0.062657 0.127715 -0.055967 -0.973713 0.000049 -0.227779
-0.055134 0.129975 -0.088126 -0.973713 0.000049 -0.227779
-0.066145 -0.116789 -0.041054 -0.973713 0.000050 -0.227779
-0.051223 -0.120892 -0.104847 -0.973713 0.000050 -0.227779
-0.058746 -0.123153 -0.072688 -0.973713 0.000050 -0.227779
-0.051223 -0.120892 -0.104847 -0.973713 0.000014 -0.227777
-0.066145 -0.116789 -0.041054 -0.973713 0.000014 -0.227777
-0.044089 -0.110160 -0.135340 -0.973713 0.000014 -0.227777
-0.044089 -0.110160 -0.135340 -0.973713 0.000017 -0.227776
-0.066145 -0.116789 -0.041054 -0.973713 0.000017 -0.227776
-0.072917 -0.102233 -0.012103 -0.973713 0.000017 -0.227776
-0.044089 -0.110160 -0.135340 -0.973714 -0.000033 -0.227773
-0.072917 -0.102233 -0.012103 -0.973714 -0.000033 -0.227773
-0.037832 -0.091689 -0.162091 -0.973714 -0.000033 -0.227773
-0.037832 -0.091689 -0.162091 -0.973715 0.000010 -0.227771
-0.072917 -0.102233 -0.012103 -0.973715 0.000010 -0.227771
-0.078601 -0.080477 0.012193 -0.973715 0.000010 -0.227771
-0.037832 -0.091689 -0.162091 -0.973715 0.000000 -0.227770
-0.078601 -0.080477 0.012193 -0.973715 0.000000 -0.227770
-0.058059 -0.075042 -0.075622 -0.973715 0.000000 -0.227770
-0.037832 -0.091689 -0.162091 -0.973717 -0.000046 -0.227762
-0.058059 -0.075042 -0.075622 -0.973717 -0.000046 -0.227762
-0.053396 -0.073641 -0.095556 -0.973717 -0.000046 -0.227762
-0.037832 -0.091689 -0.162091 -0.973714 -0.000001 -0.227773
-0.053396 -0.073641 -0.095556 -0.973714 -0.000001 -0.227773
-0.032877 -0.066736 -0.183274 -0.973714 -0.000001 -0.227773
-0.032877 -0.066736 -0.183274 -0.973717 0.000145 -0.227762
-0.053396 -0.073641 -0.095556 -0.973717 0.000145 -0.227762
-0.048974 -0.066988 -0.114459 -0.973717 0.000145 -0.227762
-0.032877 -0.066736 -0.183274 -0.973717 -0.000014 -0.227763
-0.048974 -0.066988 -0.114459 -0.973717 -0.000014 -0.227763
-0.045095 -0.055539 -0.131041 -0.973717 -0.000014 -0.227763
-0.032877 -0.066736 -0.183274 -0.973716 -0.000002 -0.227765
-0.045095 -0.055539 -0.131041 -0.973716 -0.000002 -0.227765
-0.029562 -0.037004 -0.197447 -0.973716 -0.000002 -0.227765
-0.029562 -0.037004 -0.197447 -0.973716 0.000004 -0.227764
-0.045095 -0.055539 -0.131041 -0.973716 0.000004 -0.227764
-0.042024 -0.040071 -0.144171 -0.973716 0.000004 -0.227764
-0.029562 -0.037004 -0.197447 -0.973716 -0.000003 -0.227764
-0.042024 -0.040071 -0.144171 -0.973716 -0.000003 -0.227764
-0.039969 -0.021641 -0.152957 -0.973716 -0.000003 -0.227764
-0.029562 -0.037004 -0.197447 -0.973715 0.000018 -0.227771
-0.039969 -0.021641 -0.152957 -0.973715 0.000018 -0.227771
-0.028112 -0.004516 -0.203644 -0.973715 0.000018 -0.227771
-0.028112 -0.004516 -0.203644 -0.973716 0.000030 -0.227767
-0.039969 -0.021641 -0.152957 -0.973716 0.000030 -0.227767
-0.039070 -0.001503 -0.156798 -0.973716 0.000030 -0.227767
-0.028112 -0.004516 -0.203644 -0.973716 -0.000014 -0.227764
-0.039070 -0.001503 -0.156798 -0.973716 -0.000014 -0.227764
-0.028627 0.028511 -0.201443 -0.973716 -0.000014 -0.227764
-0.028627 0.028511 -0.201443 -0.973712 -0.000045 -0.227784
-0.039070 -0.001503 -0.156798 -0.973712 -0.000045 -0.227784
-0.039390 0.018970 -0.155433 -0.973712 -0.000045 -0.227784
-0.028627 0.028511 -0.201443 -0.973714 0.000014 -0.227772
-0.039390 0.018970 -0.155433 -0.973714 0.000014 -0.227772
-0.040905 0.038382 -0.148956 -0.973714 0.000014 -0.227772
-0.028627 0.028511 -0.201443 -0.973715 0.000002 -0.227770
-0.040905 0.038382 -0.148956 -0.973715 0.000002 -0.227770
-0.031071 0.059828 -0.190993 -0.973715 0.000002 -0.227770
-0.031071 0.059828 -0.190993 -0.973715 0.000007 -0.227768
-0.040905 0.038382 -0.148956 -0.973715 0.000007 -0.227768
-0.043513 0.055411 -0.137807 -0.973715 0.000007 -0.227768
-0.031071 0.059828 -0.190993 -0.973715 -0.000017 -0.227770
-0.043513 0.055411 -0.137807 -0.973715 -0.000017 -0.227770
-0.047036 0.068897 -0.122746 -0.973715 -0.000017 -0.227770
-0.031071 0.059828 -0.190993 -0.973714 0.000020 -0.227775
-0.047036 0.068897 -0.122746 -0.973714 0.000020 -0.227775
-0.035278 0.087300 -0.173007 -0.973714 0.000020 -0.227775
-0.035278 0.087300 -0.173007 -0.973715 0.000035 -0.227769
-0.047036 0.068897 -0.122746 -0.973715 0.000035 -0.227769
-0.051233 0.077919 -0.104801 -0.973715 0.000035 -0.227769
-0.035278 0.087300 -0.173007 -0.973711 -0.000096 -0.227786
-0.051233 0.077919 -0.104801 -0.973711 -0.000096 -0.227786
-0.055821 0.081865 -0.085192 -0.973711 -0.000096 -0.227786
-0.055821 0.081865 -0.085192 0.973711 0.000096 0.227786
-0.051233 0.077919 -0.104801 0.973711 0.000096 0.227786
-0.035278 0.087300 -0.173007 0.973711 0.000096 0.227786
-0.051233 0.077919 -0.104801 0.973715 -0.000035 0.227769
-0.047036 0.068897 -0.122746 0.973715 -0.000035 0.227769
-0.035278 0.087300 -0.173007 0.973715 -0.000035 0.227769
-0.035278 0.087300 -0.173007 0.973714 -0.000020 0.227775
-0.047036 0.068897 -0.122746 0.973714 -0.000020 0.227775
-0.031071 0.059828 -0.190993 0.973714 -0.000020 0.227775
-0.047036 0.068897 -0.122746 0.973715 0.000017 0.227770
-0.043513 0.055411 -0.137807 0.973715 0.000017 0.227770
-0.031071 0.059828 -0.190993 0.973715 0.000017 0.227770
-0.043513 0.055411 -0.137807 0.973715 -0.000007 0.227768
-0.040905 0.038382 -0.148956 0.973715 -0.000007 0.227768
-0.031071 0.059828 -0.190993 0.973715 -0.000007 0.227768
-0.031071 0.059828 -0.190993 0.973715 -0.000002 0.227770
-0.040905 0.038382 -0.148956 0.973715 -0.000002 0.227770
-0.028627 0.028511 -0.201443 0.973715 -0.000002 0.227770
-0.040905 0.038382 -0.148956 0.973714 -0.000014 0.227772
-0.039390 0.018970 -0.155433 0.973714 -0.000014 0.227772
-0.028627 0.028511 -0.201443 0.973714 -0.000014 0.227772
-0.039390 0.018970 -0.155433 0.973712 0.000045 0.227784
-0.039070 -0.001503 -0.156798 0.973712 0.000045 0.227784
-0.028627 0.028511 -0.201443 0.973712 0.000045 0.227784
-0.028627 0.028511 -0.201443 0.973716 0.000014 0.227764
-0.039070 -0.001503 -0.156798 0.973716 0.000014 0.227764
-0.028112 -0.004516 -0.203644 0.973716 0.000014 0.227764
-0.039070 -0.001503 -0.156798 0.973716 -0.000030 0.227767
-0.039969 -0.021641 -0.152957 0.973716 -0.000030 0.227767
-0.028112 -0.004516 -0.203644 0.973716 -0.000030 0.227767
-0.028112 -0.004516 -0.203644 0.973715 -0.000018 0.227771
-0.039969 -0.021641 -0.152957 0.973715 -0.000018 0.227771
-0.029562 -0.037004 -0.197447 0.973715 -0.000018 0.227771
-0.039969 -0.021641 -0.152957 0.973716 0.000003 0.227764
-0.042024 -0.040071 -0.144171 0.973716 0.000003 0.227764
-0.029562 -0.037004 -0.197447 0.973716 0.000003 0.227764
-0.042024 -0.040071 -0.144171 0.973716 -0.000004 0.227764
-0.045095 -0.055539 -0.131041 0.973716 -0.000004 0.227764
-0.029562 -0.037004 -0.197447 0.973716 -0.000004 0.227764
-0.029562 -0.037004 -0.197447 0.973716 0.000002 0.227765
-0.045095 -0.055539 -0.131041 0.973716 0.000002 0.227765
-0.032877 -0.066736 -0.183274 0.973716 0.000002 0.227765
-0.045095 -0.055539 -0.131041 0.973717 0.000014 0.227763
-0.048974 -0.066988 -0.114459 0.973717 0.000014 0.227763
-0.032877 -0.066736 -0.183274 0.973717 0.000014 0.227763
-0.048974 -0.066988 -0.114459 0.973717 -0.000145 0.227762
-0.053396 -0.073641 -0.095556 0.973717 -0.000145 0.227762
-0.032877 -0.066736 -0.183274 0.973717 -0.000145 0.227762
-0.032877 -0.066736 -0.183274 0.973714 0.000001 0.227773
-0.053396 -0.073641 -0.095556 0.973714 0.000001 0.227773
-0.037832 -0.091689 -0.162091 0.973714 0.000001 0.227773
-0.053396 -0.073641 -0.095556 0.973717 0.000046 0.227762
-0.058059 -0.075042 -0.075622 0.973717 0.000046 0.227762
-0.037832 -0.091689 -0.162091 0.973717 0.000046 0.227762
-0.058059 -0.075042 -0.075622 0.973715 -0.000000 0.227770
-0.078601 -0.080477 0.012193 0.973715 -0.000000 0.227770
-0.037832 -0.091689 -0.162091 0.973715 -0.000000 0.227770
-0.078601 -0.080477 0.012193 0.973715 -0.000010 0.227771
-0.072917 -0.102233 -0.012103 0.973715 -0.000010 0.227771
-0.037832 -0.091689 -0.162091 0.973715 -0.000010 0.227771
-0.037832 -0.091689 -0.162091 0.973714 0.000033 0.227773
-0.072917 -0.102233 -0.012103 0.973714 0.000033 0.227773
-0.044089 -0.110160 -0.135340 0.973714 0.000033 0.227773
-0.072917 -0.102233 -0.012103 0.973713 -0.000017 0.227776
-0.066145 -0.116789 -0.041054 0.973713 -0.000017 0.227776
-0.044089 -0.110160 -0.135340 0.973713 -0.000017 0.227776
-0.044089 -0.110160 -0.135340 0.973713 -0.000014 0.227777
-0.066145 -0.116789 -0.041054 0.973713 -0.000014 0.227777
-0.051223 -0.120892 -0.104847 0.973713 -0.000014 0.227777
-0.058746 -0.123153 -0.072688 0.973713 -0.000050 0.227779
-0.051223 -0.120892 -0.104847 0.973713 -0.000050 0.227779
-0.066145 -0.116789 -0.041054 0.973713 -0.000050 0.227779
-0.055134 0.129975 -0.088126 0.973713 -0.000049 0.227779
-0.062657 0.127715 -0.055967 0.973713 -0.000049 0.227779
-0.047735 0.123611 -0.119759 0.973713 -0.000049 0.227779
-0.062657 0.127715 -0.055967 0.973715 0.000065 0.227772
-0.069790 0.116983 -0.025473 0.973715 0.000065 0.227772
-0.047735 0.123611 -0.119759 0.973715 0.000065 0.227772
-0.047735 0.123611 -0.119759 0.973715 0.000001 0.227768
-0.069790 0.116983 -0.025473 0.973715 0.000001 0.227768
-0.040962 0.109055 -0.148711 0.973715 0.000001 0.227768
-0.069790 0.116983 -0.025473 0.973715 -0.000028 0.227770
-0.076047 0.098511 0.001277 0.973715 -0.000028 0.227770
-0.040962 0.109055 -0.148711 0.973715 -0.000028 0.227770
-0.040962 0.109055 -0.148711 0.973714 0.000032 0.227773
-0.076047 0.098511 0.001277 0.973714 0.000032 0.227773
-0.035278 0.087300 -0.173007 0.973714 0.000032 0.227773
-0.035278 0.087300 -0.173007 0.973713 -0.000045 0.227778
-0.076047 0.098511 0.001277 0.973713 -0.000045 0.227778
-0.055821 0.081865 -0.085192 0.973713 -0.000045 0.227778
-0.055821 0.081865 -0.085192 0.973717 0.000048 0.227761
-0.076047 0.098511 0.001277 0.973717 0.000048 0.227761
-0.060484 0.080463 -0.065257 0.973717 0.000048 0.227761
-0.060484 0.080463 -0.065257 0.973715 0.000022 0.227768
-0.076047 0.098511 0.001277 0.973715 0.000022 0.227768
-0.064905 0.073811 -0.046355 0.973715 0.000022 0.227768
-0.076047 0.098511 0.001277 0.973713 0.000004 0.227777
-0.081003 0.073559 0.022460 0.973713 0.000004 0.227777
-0.064905 0.073811 -0.046355 0.973713 0.000004 0.227777
-0.064905 0.073811 -0.046355 0.973714 -0.000053 0.227776
-0.081003 0.073559 0.022460 0.973714 -0.000053 0.227776
-0.068784 0.062361 -0.029774 0.973714 -0.000053 0.227776
-0.068784 0.062361 -0.029774 0.973716 -0.000002 0.227766
-0.081003 0.073559 0.022460 0.973716 -0.000002 0.227766
-0.071856 0.046894 -0.016643 0.973716 -0.000002 0.227766
-0.081003 0.073559 0.022460 0.973716 0.000001 0.227764
-0.084318 0.043826 0.036633 0.973716 0.000001 0.227764
-0.071856 0.046894 -0.016643 0.973716 0.000001 0.227764
-0.071856 0.046894 -0.016643 0.973716 0.000002 0.227764
-0.084318 0.043826 0.036633 0.973716 0.000002 0.227764
-0.073911 0.028463 -0.007857 0.973716 0.000002 0.227764
-0.084318 0.043826 0.036633 0.973715 -0.000018 0.227771
-0.085768 0.011339 0.042830 0.973715 -0.000018 0.227771
-0.073911 0.028463 -0.007857 0.973715 -0.000018 0.227771
-0.073911 0.028463 -0.007857 0.973712 0.000024 0.227784
-0.085768 0.011339 0.042830 0.973712 0.000024 0.227784
-0.074809 0.008325 -0.004016 0.973712 0.000024 0.227784
-0.074809 0.008325 -0.004016 0.973711 -0.000004 0.227786
-0.085768 0.011339 0.042830 0.973711 -0.000004 0.227786
-0.074490 -0.012147 -0.005380 0.973711 -0.000004 0.227786
-0.085768 0.011339 0.042830 0.973713 0.000013 0.227778
-0.085253 -0.021689 0.040629 0.973713 0.000013 0.227778
-0.074490 -0.012147 -0.005380 0.973713 0.000013 0.227778
-0.074490 -0.012147 -0.005380 0.973714 -0.000014 0.227772
-0.085253 -0.021689 0.040629 0.973714 -0.000014 0.227772
-0.072975 -0.031560 -0.011857 0.973714 -0.000014 0.227772
-0.072975 -0.031560 -0.011857 0.973715 -0.000010 0.227772
-0.085253 -0.021689 0.040629 0.973715 -0.000010 0.227772
-0.070367 -0.048589 -0.023007 0.973715 -0.000010 0.227772
-0.085253 -0.021689 0.040629 0.973715 -0.000002 0.227769
-0.082808 -0.053005 0.030179 0.973715 -0.000002 0.227769
-0.070367 -0.048589 -0.023007 0.973715 -0.000002 0.227769
-0.070367 -0.048589 -0.023007 0.973715 0.000018 0.227770
-0.082808 -0.053005 0.030179 0.973715 0.000018 0.227770
-0.066844 -0.062074 -0.038068 0.973715 0.000018 0.227770
-0.066844 -0.062074 -0.038068 0.973717 0.000091 0.227761
-0.082808 -0.053005 0.030179 0.973717 0.000091 0.227761
-0.062645 -0.071097 -0.056014 0.973717 0.000091 0.227761
-0.082808 -0.053005 0.030179 0.973714 0.000016 0.227776
-0.078601 -0.080477 0.012193 0.973714 0.000016 0.227776
-0.062645 -0.071097 -0.056014 0.973714 0.000016 0.227776
-0.058059 -0.075042 -0.075622 0.973716 -0.000053 0.227767
-0.062645 -0.071097 -0.056014 0.973716 -0.000053 0.227767
-0.078601 -0.080477 0.012193 0.973716 -0.000053 0.227767
3 0 1 2
3 3 4 5
3 6 7 8
3 9 10 11
3 12 13 14
3 15 16 17
3 18 19 20
3 21 22 23
3 24 25 26
3 27 28 29
3 30 31 32
3 30 32 33
3 34 35 36
3 37 38 39
3 40 41 42
3 43 44 45
3 46 47 48
3 49 50 51
3 52 53 54
3 55 56 57
3 58 59 60
3 61 62 63
3 64 65 66
3 65 64 67
3 68 69 70
3 71 72 73
3 74 75 76
3 77 78 79
3 80 81 82
3 81 80 83
3 84 85 86
3 85 84 87
3 88 89 90
3 91 92 93
3 94 95 96
3 95 94 97
3 98 99 100
3 101 102 103
3 104 105 106
3 107 108 109
3 110 111 112
3 113 114 115
3 116 117 118
3 117 116 119
3 120 121 122
3 121 120 123
3 124 125 126
3 125 124 127
3 128 129 130
3 129 128 131
3 132 133 134
3 135 136 137
3 138 139 140
3 141 142 143
3 144 145 146
3 145 144 147
3 148 149 150
3 151 152 153
3 154 155 156
3 157 158 159
3 160 161 162
3 161 160 163
3 164 165 166
3 165 164 167
3 168 169 170
3 171 172 173
3 174 175 176
3 175 174 177
3 178 179 180
3 179 178 181
3 182 183 184
3 185 186 187
3 188 189 190
3 191 192 193
3 194 195 196
3 197 198 199
3 200 201 202
3 203 204 205
3 206 207 208
3 209 210 211
3 212 213 214
3 213 215 214
3 216 217 218
3 219 220 221
3 222 223 224
3 225 226 227
3 228 229 230
3 231 232 233
3 234 235 236
3 237 238 239
3 240 241 242
3 243 244 245
3 246 247 248
3 249 248 247
3 250 251 252
3 253 254 255
3 256 257 258
3 259 260 261
3 262 263 264
3 265 264 263
3 266 267 268
3 269 268 267
3 270 271 272
3 273 274 275
3 276 277 278
3 279 278 277
3 280 281 282
3 283 284 285
3 286 287 288
3 289 290 291
3 292 293 294
3 295 296 297
3 298 299 300
3 301 300 299
3 302 303 304
3 305 304 303
3 306 307 308
3 309 308 307
3 310 311 312
3 313 312 311
3 314 315 316
3 317 318 319
3 320 321 322
3 323 324 325
3 326 327 328
3 329 328 327
3 330 331 332
3 333 334 335
3 336 337 338
3 339 340 341
3 342 343 344
3 345 344 343
3 346 347 348
3 349 348 347
3 350 351 352
3 353 354 355
3 356 357 358
3 359 358 357
3 360 361 362
3 363 362 361
3 364 365 366
3 367 368 369
3 370 371 372
3 373 374 375
3 376 377 378
3 379 380 381
3 382 383 384
3 385 386 387
3 388 389 390
3 391 392 393
3 394 395 396
3 397 398 399
3 400 401 402
3 403 404 405
3 406 407 408
3 409 410 411
3 412 413 414
3 415 416 417
3 418 419 420
3 421 422 423
3 424 425 426
3 427 428 429
3 430 431 432
3 433 434 435
3 436 437 438
3 439 440 441
3 442 443 444
3 445 446 447
3 448 449 450
3 451 452 453
3 454 455 456
3 457 458 459
3 460 461 462
3 463 464 465
3 466 467 468
3 469 470 471
3 472 473 474
3 475 476 477
3 478 479 480
3 481 482 483
3 484 485 486
3 487 488 489
3 490 491 492
3 493 494 495
3 496 497 498
3 499 500 501
3 502 503 504
3 505 506 507
3 508 509 510
3 511 512 513
3 514 515 516
3 517 518 519
3 520 521 522
3 523 524 525
3 526 527 528
3 529 530 531
3 532 533 534
3 535 536 537
3 538 539 540
3 541 542 543
3 544 545 546
3 547 548 549
3 550 551 552
3 553 554 555
3 556 557 558
3 559 560 561
3 562 563 564
3 565 566 567
3 568 569 570
3 571 572 573
3 574 575 576
3 577 578 579
3 580 581 582
3 583 584 585
3 586 587 588
3 589 590 591
3 592 593 594
3 595 596 597
3 598 599 600
3 601 602 603
3 604 605 606
3 607 608 609
3 610 611 612
3 613 614 615
3 616 617 618
3 619 620 621
3 622 623 624
3 625 626 627
3 628 629 630
3 631 632 633
3 634 635 636
3 637 638 639
3 640 641 642
3 643 644 645
3 646 647 648
3 649 650 651
